<?xml version="1.0" standalone="no"?>
<!DOCTYPE svg PUBLIC "-//W3C//DTD SVG 20010904//EN"
 "http://www.w3.org/TR/2001/REC-SVG-20010904/DTD/svg10.dtd">
<svg version="1.0" xmlns="http://www.w3.org/2000/svg"
 width="340.000000pt" height="285.000000pt" viewBox="0 0 340.000000 285.000000"
 preserveAspectRatio="xMidYMid meet">
<metadata>
Created by potrace 1.11, written by Peter Selinger 2001-2013
</metadata>
<g transform="translate(0.000000,285.000000) scale(0.100000,-0.100000)"
fill="#000000" stroke="none">
<path d="M1585 2593 c6 -6 53 -48 105 -93 52 -46 107 -99 121 -119 67 -91 209
-359 209 -393 0 -11 -36 -34 -117 -75 l-118 -58 70 -7 c124 -11 460 -21 497
-14 21 4 50 21 71 42 44 45 321 453 313 461 -3 4 -45 -12 -93 -35 -103 -49
-93 -53 -184 78 -75 108 -120 157 -163 175 -48 20 -730 56 -711 38z"/>
<path d="M1260 2541 c-79 -26 -156 -96 -227 -206 -117 -184 -174 -280 -171
-293 3 -16 500 -322 522 -322 13 0 66 86 276 445 69 120 80 145 75 172 -8 44
-89 113 -190 164 -72 36 -90 40 -170 44 -50 3 -101 1 -115 -4z"/>
<path d="M2595 1817 c-375 -209 -395 -222 -395 -242 0 -26 49 -127 137 -285
39 -69 91 -167 117 -218 53 -105 46 -103 168 -71 105 26 164 57 219 113 106
107 136 270 79 417 -17 44 -187 359 -193 359 -1 0 -60 -33 -132 -73z"/>
<path d="M410 1823 c1 -11 81 -69 121 -86 19 -9 47 -26 62 -39 l28 -23 -61
-130 c-55 -119 -60 -136 -60 -198 0 -57 6 -81 35 -145 44 -96 288 -542 296
-542 3 0 9 40 13 89 9 118 38 218 95 326 59 113 167 281 185 288 8 3 29 -5 47
-17 57 -39 201 -118 205 -113 3 2 -38 80 -89 173 -52 93 -116 211 -143 263
-32 61 -58 98 -75 107 -18 9 -113 18 -285 29 -143 8 -285 17 -316 20 -32 3
-58 2 -58 -2z"/>
<path d="M2061 1157 c-13 -23 -77 -123 -141 -222 -64 -99 -127 -199 -140 -222
-28 -50 -33 -34 98 -298 98 -199 141 -271 157 -268 13 3 24 64 24 141 l1 62
83 0 c121 0 264 18 304 37 22 10 46 34 62 61 14 24 94 153 176 286 83 132 154
246 158 253 4 7 -23 -2 -59 -18 -139 -63 -198 -73 -424 -72 -113 0 -218 5
-235 10 l-30 9 -2 138 c-1 76 -3 139 -5 141 -2 2 -14 -15 -27 -38z"/>
<path d="M1100 970 c-69 -4 -126 -8 -126 -9 -13 -14 -45 -112 -50 -152 -18
-158 91 -362 225 -422 48 -21 208 -35 429 -36 l102 -1 -2 313 -3 312 -225 1
c-124 0 -281 -2 -350 -6z"/>
</g>
</svg>
