<?xml version="1.0" encoding="UTF-8" standalone="no"?>
<svg
   xmlns:dc="http://purl.org/dc/elements/1.1/"
   xmlns:cc="http://creativecommons.org/ns#"
   xmlns:rdf="http://www.w3.org/1999/02/22-rdf-syntax-ns#"
   xmlns:svg="http://www.w3.org/2000/svg"
   xmlns="http://www.w3.org/2000/svg"
   xmlns:sodipodi="http://sodipodi.sourceforge.net/DTD/sodipodi-0.dtd"
   xmlns:inkscape="http://www.inkscape.org/namespaces/inkscape"
   version="1.0"
   width="450.000000pt"
   height="448.000000pt"
   viewBox="0 0 450.000000 448.000000"
   preserveAspectRatio="xMidYMid meet"
   id="svg2997"
   inkscape:version="0.48.5 r10040"
   sodipodi:docname="chef.svg">
  <defs
     id="defs3007" />
  <sodipodi:namedview
     pagecolor="#ffffff"
     bordercolor="#666666"
     borderopacity="1"
     objecttolerance="10"
     gridtolerance="10"
     guidetolerance="10"
     inkscape:pageopacity="0"
     inkscape:pageshadow="2"
     inkscape:window-width="1600"
     inkscape:window-height="837"
     id="namedview3005"
     showgrid="false"
     inkscape:zoom="1"
     inkscape:cx="115.75"
     inkscape:cy="280"
     inkscape:window-x="-8"
     inkscape:window-y="-8"
     inkscape:window-maximized="1"
     inkscape:current-layer="svg2997" />
  <metadata
     id="metadata2999">
Created by potrace 1.11, written by Peter Selinger 2001-2013
<rdf:RDF>
  <cc:Work
     rdf:about="">
    <dc:format>image/svg+xml</dc:format>
    <dc:type
       rdf:resource="http://purl.org/dc/dcmitype/StillImage" />
  </cc:Work>
</rdf:RDF>
</metadata>
  <g
     transform="translate(0.000000,448.000000) scale(0.100000,-0.100000)"
     fill="#000000"
     stroke="none"
     id="g3001"
     style="fill:#d47a55;fill-opacity:0.33333334">
    <path
       d="M3186 4469 c-183 -21 -431 -92 -644 -185 -119 -52 -291 -142 -360 -189 l-33 -22 -127 37 c-342 101 -640 152 -897 152 -267 1 -464 -45 -637 -148 -93 -56 -225 -180 -281 -265 -123 -189 -207 -449 -207 -643 1 -338 239 -583 682 -701 107 -28 337 -65 409 -65 46 0 46 0 57 -42 67 -274 152 -1301 152 -1838 0 -125 3 -160 16 -178 80 -114 630 -193 1254 -179 291 7 429 17 625 49 218 34 374 89 389 136 4 10 -14 196 -39 413 -24 217 -74 655 -110 974 -36 319 -72 638 -81 708 -8 71 -14 131 -12 133 2 1 46 -4 98 -12 128 -21 334 -14 445 16 231 61 417 213 521 425 71 146 87 222 87 410 0 176 -12 242 -74 390 -66 159 -212 336 -358 435 -143 96 -336 168 -506 189 -101 12 -265 12 -369 0z m489 -71 c349 -69 599 -313 690 -673 30 -118 41 -274 26 -364 -31 -190 -197 -400 -401 -510 -128 -68 -209 -86 -390 -85 -135 0 -168 4 -255 27 -55 15 -103 27 -107 27 -11 0 -10 -132 2 -270 5 -63 12 -142 15 -175 16 -189 86 -823 156 -1418 29 -240 50 -440 47 -443 -3 -2 -39 4 -79 15 -411 111 -1308 119 -1799 15 -63 -13 -118 -24 -121 -24 -4 0 -10 53 -13 118 -50 866 -105 1575 -136 1741 -5 25 -7 47 -5 49 1 2 34 8 71 13 245 34 565 159 790 307 150 98 141 103 -63 32 -354 -122 -633 -167 -982 -157 -251 7 -389 30 -551 94 -134 53 -252 149 -313 254 -61 104 -81 271 -52 426 39 208 120 361 261 498 216 209 534 317 879 300 314 -16 554 -68 694 -149 l34 -20 -30 -27 c-36 -31 -115 -63 -228 -91 -114 -28 -113 -27 -95 -38 23 -15 167 -11 244 5 94 20 169 57 338 166 272 176 460 267 668 323 244 65 490 77 705 34z m-751 -3903 c230 -24 346 -50 388 -86 l23 -19 -27 -24 c-33 -30 -154 -59 -333 -81 -178 -22 -730 -31 -946 -16 -350 25 -553 73 -536 125 17 51 291 102 637 120 153 8 659 -4 794 -19z"
       id="path3003"
       style="fill:#d47a55;fill-opacity:0.33333334" />
  </g>
</svg>
