<?xml version="1.0" encoding="UTF-8" standalone="no"?>
<svg
   xmlns:dc="http://purl.org/dc/elements/1.1/"
   xmlns:cc="http://creativecommons.org/ns#"
   xmlns:rdf="http://www.w3.org/1999/02/22-rdf-syntax-ns#"
   xmlns:svg="http://www.w3.org/2000/svg"
   xmlns="http://www.w3.org/2000/svg"
   xmlns:sodipodi="http://sodipodi.sourceforge.net/DTD/sodipodi-0.dtd"
   xmlns:inkscape="http://www.inkscape.org/namespaces/inkscape"
   version="1.0"
   width="365.000000pt"
   height="286.000000pt"
   viewBox="0 0 365.000000 286.000000"
   preserveAspectRatio="xMidYMid meet"
   id="svg3789"
   inkscape:version="0.48.5 r10040"
   sodipodi:docname="diaporama.svg">
  <defs
     id="defs3799" />
  <sodipodi:namedview
     pagecolor="#ffffff"
     bordercolor="#666666"
     borderopacity="1"
     objecttolerance="10"
     gridtolerance="10"
     guidetolerance="10"
     inkscape:pageopacity="0"
     inkscape:pageshadow="2"
     inkscape:window-width="1600"
     inkscape:window-height="837"
     id="namedview3797"
     showgrid="false"
     inkscape:zoom="1"
     inkscape:cx="62.625"
     inkscape:cy="178.75"
     inkscape:window-x="-8"
     inkscape:window-y="-8"
     inkscape:window-maximized="1"
     inkscape:current-layer="svg3789" />
  <metadata
     id="metadata3791">
Created by potrace 1.11, written by Peter Selinger 2001-2013
<rdf:RDF>
  <cc:Work
     rdf:about="">
    <dc:format>image/svg+xml</dc:format>
    <dc:type
       rdf:resource="http://purl.org/dc/dcmitype/StillImage" />
  </cc:Work>
</rdf:RDF>
</metadata>
  <g
     transform="translate(0.000000,286.000000) scale(0.100000,-0.100000)"
     fill="#000000"
     stroke="none"
     id="g3793"
     style="fill:#d47a55;fill-opacity:0.33333334">
    <path
       d="M2615 2831 c-69 -12 -162 -40 -210 -63 -157 -79 -298 -210 -392 -366 -45 -75 -57 -106 -85 -224 l-33 -138 -232 0 c-231 0 -232 0 -244 23 -36 69 -143 196 -202 239 -97 72 -224 126 -338 146 -85 14 -110 15 -201 3 -133 -16 -186 -32 -275 -84 -144 -84 -281 -234 -333 -369 -51 -129 -63 -288 -34 -447 46 -255 294 -503 555 -558 l84 -18 3 -353 2 -352 85 0 85 0 0 -130 0 -130 690 0 690 0 0 130 0 130 145 0 145 0 0 80 0 80 30 0 c30 0 30 -1 30 -55 l0 -55 135 0 135 0 0 350 0 350 -135 0 -135 0 0 -60 0 -60 -30 0 -30 0 0 116 0 116 28 -6 c140 -32 339 -32 457 0 90 24 269 120 336 179 83 74 187 208 226 292 49 105 83 258 83 371 0 145 -54 336 -127 451 -127 199 -311 341 -512 397 -65 17 -320 27 -396 15z m43 -190 c21 -13 48 -302 33 -351 -15 -50 -45 -87 -100 -121 -59 -38 -109 -38 -192 0 -35 16 -91 38 -124 49 -33 11 -82 29 -108 41 l-48 21 25 47 c76 149 205 259 361 308 46 15 134 18 153 6z m436 -46 c106 -60 212 -157 255 -237 l31 -56 -125 -66 c-70 -37 -145 -72 -169 -78 -40 -11 -48 -9 -97 16 -117 61 -129 85 -129 263 0 76 3 155 7 177 l6 38 66 -4 c57 -3 78 -10 155 -53z m-2401 -432 c4 -74 3 -119 -3 -121 -6 -2 -10 -23 -10 -46 0 -28 -7 -52 -20 -69 -23 -29 -96 -67 -129 -67 -13 0 -85 26 -161 57 l-138 57 25 51 c48 93 150 195 230 226 29 12 113 25 169 28 l31 1 6 -117z m342 79 c33 -17 72 -39 86 -49 32 -23 129 -130 129 -143 0 -6 -76 -10 -205 -10 l-205 0 0 113 c0 63 3 117 8 121 16 18 128 -2 187 -32z m1735 -169 c103 28 173 -95 101 -175 -26 -29 -36 -33 -79 -33 -40 0 -56 5 -77 25 -24 23 -26 31 -23 87 2 48 -1 65 -15 81 -18 19 -18 21 0 31 14 7 22 6 36 -8 16 -15 24 -16 57 -8z m711 -48 c30 -159 -51 -447 -146 -519 l-32 -24 -99 98 c-110 110 -144 166 -144 242 0 34 7 57 26 85 25 38 99 104 138 125 32 18 230 66 238 59 5 -4 13 -34 19 -66z m-3131 -266 c47 -6 96 -16 110 -22 40 -19 60 -71 60 -158 0 -80 -9 -107 -50 -151 -14 -14 -38 -44 -55 -66 -16 -22 -39 -45 -50 -52 -17 -11 -23 -8 -57 31 -78 89 -118 209 -118 350 l0 91 38 -6 c20 -3 75 -11 122 -17z m2519 -69 c21 -10 54 -38 72 -61 52 -66 178 -280 172 -294 -7 -21 -95 -54 -170 -65 -137 -20 -294 -5 -390 36 -32 13 -33 16 -33 71 0 52 6 69 63 172 50 90 72 118 103 137 50 31 128 32 183 4z m-2189 -404 l0 -164 -41 9 c-52 12 -119 46 -119 60 0 33 137 259 157 259 2 0 3 -74 3 -164z"
       id="path3795"
       style="fill:#d47a55;fill-opacity:0.33333334" />
  </g>
</svg>
