<?xml version="1.0" encoding="UTF-8" standalone="no"?>
<svg
   xmlns:dc="http://purl.org/dc/elements/1.1/"
   xmlns:cc="http://creativecommons.org/ns#"
   xmlns:rdf="http://www.w3.org/1999/02/22-rdf-syntax-ns#"
   xmlns:svg="http://www.w3.org/2000/svg"
   xmlns="http://www.w3.org/2000/svg"
   xmlns:sodipodi="http://sodipodi.sourceforge.net/DTD/sodipodi-0.dtd"
   xmlns:inkscape="http://www.inkscape.org/namespaces/inkscape"
   version="1.0"
   width="296.000000pt"
   height="250.000000pt"
   viewBox="0 0 296.000000 250.000000"
   preserveAspectRatio="xMidYMid meet"
   id="svg4337"
   inkscape:version="0.48.5 r10040"
   sodipodi:docname="mando.svg">
  <defs
     id="defs4363" />
  <sodipodi:namedview
     pagecolor="#ffffff"
     bordercolor="#666666"
     borderopacity="1"
     objecttolerance="10"
     gridtolerance="10"
     guidetolerance="10"
     inkscape:pageopacity="0"
     inkscape:pageshadow="2"
     inkscape:window-width="1600"
     inkscape:window-height="837"
     id="namedview4361"
     showgrid="false"
     inkscape:zoom="1"
     inkscape:cx="19.5"
     inkscape:cy="156.25"
     inkscape:window-x="-8"
     inkscape:window-y="-8"
     inkscape:window-maximized="1"
     inkscape:current-layer="svg4337" />
  <metadata
     id="metadata4339">
Created by potrace 1.11, written by Peter Selinger 2001-2013
<rdf:RDF>
  <cc:Work
     rdf:about="">
    <dc:format>image/svg+xml</dc:format>
    <dc:type
       rdf:resource="http://purl.org/dc/dcmitype/StillImage" />
  </cc:Work>
</rdf:RDF>
</metadata>
  <g
     transform="translate(0.000000,250.000000) scale(0.100000,-0.100000)"
     fill="#000000"
     stroke="none"
     id="g4341"
     style="fill:#d47a55;fill-opacity:0.33333334">
    <path
       d="M1360 2433 c-89 -9 -252 -36 -325 -54 -306 -76 -478 -183 -726 -454 -25 -27 -69 -67 -97 -87 -71 -52 -103 -111 -113 -207 -4 -42 -15 -110 -23 -151 -23 -107 -32 -328 -17 -431 30 -206 164 -500 313 -685 117 -145 289 -256 450 -288 146 -30 219 -16 289 54 87 87 109 213 86 486 -9 113 6 230 40 305 65 147 230 223 429 199 103 -13 147 -24 454 -120 304 -94 351 -104 472 -98 108 5 163 25 227 84 55 49 80 99 90 183 17 130 -16 287 -90 434 -132 261 -425 557 -716 723 -145 83 -302 115 -553 112 -85 -1 -171 -3 -190 -5z m525 -62 c190 -51 285 -187 285 -406 0 -118 -21 -220 -64 -310 -83 -176 -161 -211 -491 -220 -104 -3 -209 -8 -233 -11 -61 -8 -103 -49 -159 -157 -124 -238 -344 -346 -596 -292 -196 41 -372 204 -467 432 -30 71 -41 125 -28 138 2 3 22 -4 44 -16 31 -16 54 -19 113 -17 65 2 75 0 91 -20 38 -46 151 -19 197 47 21 32 21 33 4 74 -18 41 -17 42 7 95 53 117 -17 215 -154 214 -38 0 -54 3 -54 13 0 18 150 157 235 218 181 128 356 186 740 241 17 2 125 3 240 1 177 -2 223 -6 290 -24z m281 -129 c336 -219 628 -581 690 -859 14 -65 14 -76 -1 -135 -38 -151 -155 -214 -350 -189 -147 20 -327 80 -594 200 -155 70 -214 84 -332 79 -87 -3 -104 -7 -172 -41 -144 -71 -243 -219 -263 -395 -3 -31 2 -152 11 -267 25 -300 11 -387 -75 -476 -40 -42 -51 -48 -100 -54 -106 -13 -243 23 -368 96 -75 45 -214 185 -277 279 -110 166 -213 415 -236 571 -13 90 -7 336 9 379 9 24 10 24 28 -20 51 -126 115 -220 207 -306 144 -135 355 -194 532 -149 159 41 291 147 357 287 44 90 88 143 131 157 18 5 122 12 232 15 292 8 363 26 451 114 96 98 139 233 139 437 0 131 -2 144 -27 198 -15 32 -37 71 -48 88 -28 39 -15 37 56 -9z m-1669 -411 c-7 -61 -35 -116 -79 -158 -64 -61 -195 -99 -248 -71 -53 28 -29 120 50 192 65 59 132 86 214 86 l69 0 -6 -49z m51 6 c25 -30 24 -67 -2 -122 -54 -109 -214 -189 -323 -160 -25 7 -22 9 33 20 128 27 220 100 249 199 8 27 15 56 15 63 0 16 14 17 28 0z m1193 -533 c30 -9 110 -41 179 -71 321 -142 504 -196 660 -196 137 0 209 35 278 139 24 36 3 -67 -23 -112 -48 -81 -144 -124 -280 -124 -97 0 -160 15 -460 110 -265 83 -315 96 -423 109 -211 26 -384 -50 -463 -204 -19 -35 -37 -62 -40 -59 -11 7 19 120 47 180 29 61 108 153 160 185 92 56 254 76 365 43z"
       id="path4343"
       style="fill:#d47a55;fill-opacity:0.33333334" />
    <path
       d="M1735 2353 c-160 -15 -158 -14 -187 -43 -24 -25 -28 -36 -28 -89 0 -77 12 -106 52 -131 29 -17 44 -19 118 -14 110 8 147 23 165 69 19 44 10 136 -16 169 -22 28 -62 43 -104 39z m87 -53 c28 -38 30 -143 3 -170 -30 -29 -207 -47 -242 -25 -31 21 -43 54 -43 119 0 87 32 104 189 102 67 -1 76 -3 93 -26z"
       id="path4345"
       style="fill:#d47a55;fill-opacity:0.33333334" />
    <path
       d="M1215 2280 c-133 -43 -159 -78 -130 -177 17 -60 49 -99 88 -108 14 -4 60 5 113 21 139 43 166 85 128 196 -31 92 -75 107 -199 68z m148 -18 c20 -22 47 -96 47 -128 0 -41 -39 -71 -132 -98 -119 -36 -143 -26 -172 72 -25 85 -9 108 100 147 85 29 135 31 157 7z"
       id="path4347"
       style="fill:#d47a55;fill-opacity:0.33333334" />
    <path
       d="M789 2079 c-84 -54 -117 -85 -124 -120 -13 -59 75 -179 132 -179 35 0 206 106 216 135 15 39 6 82 -29 133 -57 85 -100 92 -195 31z m131 11 c29 -16 80 -95 80 -125 0 -14 -4 -34 -10 -44 -13 -25 -162 -121 -187 -121 -31 0 -78 44 -103 95 -30 61 -16 86 83 153 80 53 103 60 137 42z"
       id="path4349"
       style="fill:#d47a55;fill-opacity:0.33333334" />
    <path
       d="M1524 2004 c-58 -21 -120 -77 -151 -138 -21 -40 -27 -65 -26 -116 0 -79 18 -124 72 -183 163 -177 467 -81 488 153 11 119 -42 216 -148 269 -52 26 -73 31 -128 30 -36 0 -85 -7 -107 -15z m220 -29 c81 -39 134 -113 143 -199 16 -152 -103 -278 -260 -277 -79 0 -121 16 -177 67 -48 43 -65 74 -80 138 -25 114 48 238 167 282 51 19 157 13 207 -11z"
       id="path4351"
       style="fill:#d47a55;fill-opacity:0.33333334" />
    <path
       d="M1568 1920 c-69 -21 -128 -98 -128 -168 0 -38 23 -98 48 -125 45 -50 143 -71 209 -46 66 25 115 96 115 169 0 122 -122 207 -244 170z m150 -37 c15 -11 38 -35 50 -54 20 -28 23 -44 20 -92 -4 -46 -10 -63 -34 -88 -40 -42 -75 -59 -124 -59 -172 0 -231 218 -80 298 54 28 126 26 168 -5z"
       id="path4353"
       style="fill:#d47a55;fill-opacity:0.33333334" />
    <path
       d="M792 1681 c-176 -61 -256 -253 -178 -427 91 -201 361 -239 510 -73 87 97 105 226 47 344 -71 143 -228 208 -379 156z m237 -38 c113 -58 143 -137 101 -264 -45 -131 -108 -193 -226 -219 -64 -15 -136 1 -207 46 -67 42 -93 94 -91 189 5 216 229 347 423 248z m151 -260 c-1 -115 -61 -210 -165 -259 -70 -33 -170 -33 -241 0 -74 34 -74 47 -1 24 66 -21 106 -19 188 8 92 30 163 118 190 237 8 31 17 57 21 57 5 0 8 -30 8 -67z"
       id="path4355"
       style="fill:#d47a55;fill-opacity:0.33333334" />
    <path
       d="M763 1589 c-35 -23 -63 -46 -63 -51 0 -5 11 -25 25 -45 13 -20 22 -40 20 -44 -3 -4 -25 -20 -50 -36 -25 -15 -45 -33 -45 -38 0 -18 70 -115 83 -115 7 0 21 6 32 13 76 52 69 51 99 7 14 -22 31 -40 37 -40 13 0 129 79 129 88 0 4 -11 24 -25 44 -14 20 -25 39 -25 41 0 3 23 19 50 37 28 18 50 36 50 41 0 11 -71 119 -78 119 -3 0 -27 -13 -54 -30 -26 -16 -50 -30 -53 -30 -3 0 -17 18 -31 40 -15 22 -29 40 -33 40 -3 0 -34 -19 -68 -41z m93 -29 c15 -22 29 -40 33 -40 3 0 26 14 51 30 25 16 48 30 52 30 9 0 58 -72 58 -85 0 -5 -23 -25 -50 -43 l-50 -32 25 -38 c14 -20 25 -42 25 -48 0 -10 -66 -60 -89 -66 -5 -2 -23 16 -40 40 l-32 43 -42 -29 c-23 -16 -47 -32 -53 -35 -11 -7 -64 62 -64 83 0 6 23 24 50 41 30 19 47 35 43 42 -3 7 -15 24 -25 39 -10 14 -18 32 -18 40 0 12 73 65 92 67 4 1 20 -17 34 -39z"
       id="path4357"
       style="fill:#d47a55;fill-opacity:0.33333334" />
  </g>
</svg>
