<?xml version="1.0" encoding="UTF-8" standalone="no"?>
<svg
   xmlns:dc="http://purl.org/dc/elements/1.1/"
   xmlns:cc="http://creativecommons.org/ns#"
   xmlns:rdf="http://www.w3.org/1999/02/22-rdf-syntax-ns#"
   xmlns:svg="http://www.w3.org/2000/svg"
   xmlns="http://www.w3.org/2000/svg"
   xmlns:sodipodi="http://sodipodi.sourceforge.net/DTD/sodipodi-0.dtd"
   xmlns:inkscape="http://www.inkscape.org/namespaces/inkscape"
   version="1.0"
   width="655.74469"
   height="675.216"
   viewBox="0 0 524.59575 540.1728"
   preserveAspectRatio="xMidYMid meet"
   id="svg4885"
   inkscape:version="0.48.5 r10040"
   sodipodi:docname="micro.svg">
  <defs
     id="defs4895" />
  <sodipodi:namedview
     pagecolor="#ffffff"
     bordercolor="#666666"
     borderopacity="1"
     objecttolerance="10"
     gridtolerance="10"
     guidetolerance="10"
     inkscape:pageopacity="0"
     inkscape:pageshadow="2"
     inkscape:window-width="1600"
     inkscape:window-height="837"
     id="namedview4893"
     showgrid="false"
     fit-margin-top="0"
     fit-margin-left="0"
     fit-margin-right="0"
     fit-margin-bottom="0"
     inkscape:zoom="0.5"
     inkscape:cx="29.313671"
     inkscape:cy="238.73457"
     inkscape:window-x="-8"
     inkscape:window-y="-8"
     inkscape:window-maximized="1"
     inkscape:current-layer="g4889" />
  <metadata
     id="metadata4887">
Created by potrace 1.11, written by Peter Selinger 2001-2013
<rdf:RDF>
  <cc:Work
     rdf:about="">
    <dc:format>image/svg+xml</dc:format>
    <dc:type
       rdf:resource="http://purl.org/dc/dcmitype/StillImage" />
  </cc:Work>
</rdf:RDF>
</metadata>
  <g
     transform="matrix(0.1,0,0,-0.1,-38.049063,699.78515)"
     id="g4889"
     style="fill:#000000;stroke:none">
    <path
       d="m 4862.375,1574.125 c -114.4781,-0.3337 -230.124,20.7256 -333.5312,70.7188 -122.219,55.4817 -234.9186,134.9568 -321.258,238.3048 -60.8632,75.3508 -111.4618,158.2586 -165.0163,238.7425 -16.0749,24.9182 -32.0131,49.9251 -48.257,74.7339 -59.8801,-11.1482 -122.8001,-20.1863 -182.5625,-3.7188 -36.3532,11.1708 -60.9437,42.322 -86.4215,68.6088 -113.3776,117.9512 -220.8324,241.4383 -328.3285,364.735 -156.2842,182.0016 -308.8529,367.1916 -465.5236,548.8661 -280.4162,328.9474 -559.9765,658.6634 -839.5141,988.3732 -79.165,92.7591 -158.0023,186.0677 -240.9623,275.2295 -24.4433,25.6226 -51.7036,47.814 -81.2823,67.3585 -62.65,43.4139 -127.0582,84.4453 -191.1905,125.8204 -81.5047,51.5812 -163.6961,102.3707 -250.3818,144.6885 -79.5766,36.0831 -165.8729,54.3279 -248.3012,82.9643 -122.67841,41.181 -243.66516,91.0313 -353.0317,160.5745 -52.40398,34.8366 -96.60011,80.4781 -133.34359,131.3985 -71.80608,97.0751 -123.24308,207.6332 -164.02743,320.8671 -45.48049,129.5979 -70.35328,266.5609 -70.65306,404.0459 -1.9008,103.7027 3.53503,208.6439 31.52408,308.9697 21.25,78.3962 48.3506,155.3617 81.90945,229.3508 66.29672,145.4495 162.44463,278.6489 287.26203,379.3223 107.58125,87.1073 234.56059,148.8516 367.55812,186.3331 77.6138,21.6756 157.5706,35.4542 238.2069,38.2265 82.3861,3.3368 164.9288,-0.3973 247.0496,-7.1775 78.3755,-7.247 155.9734,-22.6943 230.4202,-48.3989 156.5446,-52.3898 303.1416,-138.8682 416.8904,-259.2338 99.5871,-105.2139 176.239,-230.6743 231.672,-364.2037 32.3224,-77.5812 56.7559,-158.3289 72.2188,-241 15.969,-82.118 24.5524,-165.3287 32.7122,-248.5085 17.1537,-141.9663 46.5235,-282.3324 77.4309,-421.8351 29.6012,-130.3885 64.2902,-261.0299 124.8257,-380.7502 31.3594,-61.6011 67.668,-120.6077 103.8424,-179.5979 63.2135,-101.1607 129.2767,-200.5872 194.3536,-300.4682 131.3206,-199.8853 261.4099,-401.3935 373.4012,-613.0333 78.8002,-143.0523 165.7537,-282.1204 263.684,-412.5256 99.9547,-135.3033 209.0868,-263.5304 313.3986,-395.5211 94.4743,-123.1929 179.4294,-256.0292 230.5552,-403.4737 24.7567,-70.1047 46.7115,-142.0607 53.9837,-216.3176 -0.3425,-37.1014 -22.9938,-68.4509 -43.0249,-97.9344 -6.0065,-8.3745 -12.5996,-16.4129 -17.5376,-25.5656 10.5447,-36.097 19.8816,-72.5083 31.0208,-108.4611 30.7287,-100.869 68.725,-201.0108 129.6951,-287.5332 32.0225,-44.9214 72.8368,-83.89 121.3826,-110.5829 83.7848,-48.7871 178.5986,-75.8785 273.8149,-91.8573 111.9263,-17.3523 229.573,-14.0662 336.4913,25.6659 69.8028,26.2999 132.7585,71.5596 176.4088,132.4162 32.1639,43.8792 52.8472,96.2903 59.0028,150.476 9.4822,66.4222 9.8065,134.1158 4.0275,200.9388 -9.6909,93.9142 -40.8457,184.9022 -86.125,267.5 -51.8027,97.4681 -116.1859,187.6825 -180.4279,277.3979 -66.7259,89.4508 -143.7456,170.6504 -220.1971,251.8834 -70.2491,77.3058 -133.5209,164.9127 -163.8258,266.169 -31.2515,103.2764 -34.7007,212.5686 -31.2992,319.7685 3.8893,95.5306 20.6942,192.5351 65.032,278.0162 36.2936,68.5026 96.9141,124.9537 170.2804,151.39 19.2958,6.9742 42.5896,5.4792 58.1563,-8.7187 21.5103,-18.7321 32.6815,-45.9964 46.4912,-70.4192 26.8135,-52.4225 52.2473,-105.5225 78.9775,-157.9871 -46.6626,-17.1032 -89.7742,-46.4342 -118.4329,-87.378 -34.6735,-44.2909 -56.1661,-100.4381 -53.4843,-157.3092 -0.3589,-48.5346 -0.7987,-97.2417 3.8548,-145.594 6.7564,-48.0937 28.0325,-93.1792 57.1874,-131.8438 44.4849,-62.0388 104.72,-109.7912 165.3438,-155.2187 87.3705,-69.8751 160.925,-155.0602 227.7457,-244.3858 60.3205,-82.2017 114.3242,-169.4269 157.6224,-261.782 35.9295,-78.0624 60.882,-161.9625 66.1631,-248.0822 9.793,-130.2311 -12.0462,-260.2794 -40.5937,-386.875 -19.0321,-82.601 -46.9791,-164.619 -95.9746,-234.4478 -44.9667,-65.8031 -106.4309,-119.8274 -176.5254,-157.708 -104.1309,-57.6561 -221.9651,-86.6502 -339.7813,-98.8442 -43.4512,-4.2166 -87.1338,-5.856 -130.7812,-5.5625 z m 47.1562,90.5312 c 113.1108,0.6437 228.0862,18.4924 330.1876,68.9376 98.4853,47.921 185.6715,122.7229 237.6322,220.1653 50.5294,90.4645 75.6913,193.5844 79.1119,296.8893 3.9993,87.1813 -0.9398,174.9336 -16.2814,260.8327 -17.7024,92.8416 -51.99,181.7485 -93.9374,266.205 -43.5799,86.501 -99.9606,167.0837 -167.7842,236.0704 -76.6713,79.5452 -165.3148,146.7567 -247.217,220.9939 -48.5614,45.3674 -93.5967,97.6878 -116.2429,161.1246 -25.0188,67.7693 -32.8806,140.5014 -35.3122,212.406 -1.0408,62.0019 3.9872,125.035 23.9372,184.0315 21.1776,56.451 62.775,102.1597 106.9079,141.8966 2.8723,3.6454 10.7134,6.8479 4.9219,11.408 -19.2567,28.8924 -36.6136,59.0358 -58.6423,86.0079 -48.2735,-34.8433 -93.2178,-79.6446 -112.7536,-137.2502 -26.8243,-73.359 -28.8289,-152.4215 -34.8359,-229.5606 -5.2286,-86.4417 -3.4991,-175.87 28.277,-257.4704 33.1461,-86.4137 89.7197,-160.8143 149.3023,-230.3396 73.5775,-84.969 153.3214,-164.4716 221.7029,-253.9202 106.2112,-136.0594 192.1386,-289.4775 241.4948,-455.3965 21.9687,-70.7751 37.0413,-144.3176 35.7812,-218.8125 0.3174,-58.6229 0.6744,-117.4475 -4.9062,-175.8438 -6.4193,-53.2239 -27.6902,-103.9677 -58.1718,-147.6497 -44.4672,-67.3817 -109.8316,-119.1421 -182.7657,-152.9753 -71.6844,-34.4005 -151.6294,-50.8238 -231.1558,-48.7001 -98.1012,-1.1246 -196.9882,-2.3287 -294.0823,13.457 -68.0547,11.6974 -134.7061,36.0253 -190.9166,76.6373 -88.2693,61.4586 -154.6828,148.8326 -208.2868,241.0231 -54.2624,92.7821 -95.1917,192.7514 -129.996,294.2703 -1.6407,3.7768 -2.9534,7.7614 -5.4375,11.0937 -46.8258,-26.4789 -92.7643,-54.965 -133.8437,-89.7187 47.5798,-81.7261 105.9294,-156.4921 166.34,-229.039 94.8096,-110.4285 205.2862,-209.5971 333.6287,-279.6486 111.0707,-60.1138 236.4105,-96.411 363.3437,-97.125 z m -1075.8437,600.375 c 80.9945,6.4758 156.4161,41.7023 223.9269,85.1213 73.0342,47.0602 143.0021,100.8045 198.6981,167.535 2.9112,12.3213 -4.8483,23.4 -6.1192,35.438 -19.4172,75.8623 -38.9598,152.213 -69.2245,224.437 -26.6084,53.9264 -64.4526,101.1425 -97.1798,151.4206 -156.3171,225.4781 -327.2702,441.1117 -474.2273,673.0833 -212.3863,327.3792 -416.8621,659.8008 -625.0866,989.8297 -108.9845,173.8313 -218.3536,347.4499 -327.1939,521.3539 -11.0336,32.1167 -15.8315,66.0712 -25.4356,98.6373 -32.5212,130.0219 -61.54,261.5128 -74.1813,395.0705 -2.7089,20.223 -5.1594,40.4943 -8.8205,60.5734 -18.8956,-33.8106 -43.1707,-64.3972 -67.8552,-94.1915 -72.5551,-83.4952 -161.2411,-150.8552 -244.647,-222.9259 -101.909,-84.7665 -204.3071,-169.7238 -315.5849,-241.8524 -155.6822,-100.1811 -323.9829,-178.1642 -489.5213,-260.3306 -6.828,-3.4952 -13.6388,-7.0237 -20.4542,-10.5433 118.9656,-77.6792 241.1256,-150.0469 361.6876,-225.1875 32.1556,-19.7108 64.4495,-39.1947 96.7187,-58.7188 37.7506,10.2428 75.329,27.3496 115.3125,24.0938 19.0215,-5.9673 18.4605,-37.556 -0.2812,-43.5625 -22.2759,-11.8252 -47.5853,-15.6251 -71.4063,-23.2813 63.6912,-79.5484 132.721,-154.7762 198.221,-232.9373 80.7078,-93.725 161.1919,-187.8012 242.9977,-280.7501 11.6757,10.1467 27.5792,12.567 41.1876,19.2812 37.1217,14.069 75.4259,25.0955 112.75,38.4688 114.215,-153.1108 223.2892,-310.1794 324.8437,-471.9688 8.7599,-16.6342 7.1277,-36.7811 -0.4022,-53.5046 -9.9253,-27.4543 -27.2258,-51.2945 -42.5041,-76.0266 255.0343,-321.6135 513.1619,-640.6689 785.895,-947.4437 68.0526,-75.5835 136.6257,-151.0996 213.9781,-217.0861 12.576,-9.8585 25.656,-20.8893 41.6553,-24.2061 0.7509,0.058 1.5019,0.1156 2.2529,0.1733 z M 2772.8438,3522.2188 c 8.562,11.1041 12.4245,27.0168 5.0312,39.6562 -16.6454,40.0897 -43.6553,74.5562 -66.9486,110.9183 -62.223,91.5011 -124.574,182.9341 -191.4072,271.0251 -11.6052,14.5898 -22.7713,30.1137 -37.3942,41.8691 -7.1093,1.7249 -14.0552,-2.5658 -21.0215,-3.6898 -16.6845,-4.9341 -33.6148,-9.4371 -49.3847,-17.0289 117.8022,-149.8326 237.5897,-297.9298 360.5,-443.5626 l 0.6097,0.7927 0.015,0.02 z M 1371.75,4879.3438 c 195.206,95.2879 393.4953,187.2065 573.5938,309.5312 95.5864,68.0215 184.1397,145.5819 274.7764,220.0798 71.6733,60.7051 143.8254,120.8585 210.1817,187.2813 33.9792,36.4029 60.8024,78.348 87.7166,119.9394 4.9013,5.2769 11.2912,9.6299 18.544,10.6057 -6.2261,18.9906 -17.7844,36.7401 -17.5096,57.3412 -1.8778,30.0506 -1.4925,60.449 -6.3341,90.1041 -15.468,118.3312 -43.8454,234.6496 -79.9874,348.24 -12.5852,38.1157 -25.4617,76.2974 -42.1689,112.8773 -57.6982,-65.9494 -125.3808,-122.1212 -190.3503,-180.7269 -226.8993,-199.3137 -467.2984,-385.3334 -729.8684,-535.3357 -71.1594,-40.5643 -141.1912,-83.0401 -211.2706,-125.432 -93.1397,-54.8157 -189.7027,-103.7152 -287.52395,-149.6071 -41.80992,-19.0535 -84.17058,-37.3487 -127.86175,-51.6483 -6.46389,-2.0788 -13.82901,-1.7301 -20.125,-2.7188 -11.83651,-12.7006 -30.59602,-13.3233 -45.66973,-19.9212 -42.55894,-13.905 -85.84237,-25.2781 -129.14277,-36.6726 61.16199,-64.6433 127.53998,-124.6624 199.86153,-176.7471 51.95985,-38.8343 105.26677,-77.106 165.20097,-102.9716 71.3385,-27.1106 146.5393,-42.65 220.9946,-58.7097 40.5027,-8.2073 81.1593,-15.6364 121.8491,-22.8528 5.0313,2.4479 10.0625,4.8958 15.0938,7.3438 z m -748.59375,406.4374 c 63.38269,5.8616 122.01398,34.9444 185.09375,42.3438 4.94738,6.1056 13.00423,8.6298 19.682,12.4197 58.2823,27.6323 119.38957,49.3125 176.7305,78.7155 208.5881,100.2437 403.392,226.0992 600.2223,347.351 137.6488,87.3039 268.9041,184.3879 394.6181,288.1068 112.8188,91.7538 223.9238,186.0436 325.3847,290.0005 11.3777,12.5716 24.0729,24.7337 29.8312,40.844 1.3881,18.8909 -6.7694,36.551 -11.375,54.4687 -6.7509,19.728 -15.5799,38.9233 -28.8126,55.2813 -42.3294,-31.3589 -77.7799,-70.8459 -117.381,-105.6635 -102.2459,-94.427 -212.6753,-179.5753 -325.4106,-260.9128 -171.6183,-124.429 -347.9573,-242.1941 -523.7592,-360.6137 -85.4058,-56.5698 -171.1941,-113.1987 -262.2304,-160.31 -6.9647,-3.4116 -14.678,-5.8408 -21.9688,-7.9063 -7.9043,-12.2505 -22.6071,-17.1693 -34.5937,-24.4687 -41.63154,-21.2125 -84.73801,-38.9656 -127.31429,-58.0753 -111.98708,-48.0886 -225.22122,-93.7435 -340.81071,-132.331 -7.0454,-0.846 -10.78761,-2.818 -4.65136,-8.9329 19.05244,-30.8234 37.17997,-62.8931 61.46386,-89.8483 1.66581,-0.909 3.4492,-0.6829 5.28125,-0.4688 z M 533.5,5435.625 c 92.91189,28.6998 183.3717,64.6585 273.8125,100.3438 73.40451,30.03 145.51468,63.2765 219.0937,92.8124 4.7432,1.8844 11.3531,1.358 14.9063,5.2188 8.4389,14.4979 26.0174,19.0458 38.6057,28.9038 61.3695,38.1349 125.2045,72.6909 184.7584,113.555 212.5724,138.0877 419.4925,284.9669 623.6257,435.19 80.9758,60.3656 161.7688,120.9888 237.8102,187.459 50.6177,44.8863 100.5404,90.6564 145.7313,140.9234 4.2261,5.6632 3.2122,13.4271 -1.6665,18.3408 -17.8546,26.3417 -40.0611,49.4255 -61.3321,73.0192 -43.1579,46.0471 -88.3962,90.4485 -136.7762,130.9285 -62.349,50.4706 -135.3589,85.9023 -209.8502,114.6491 -76.7195,29.1309 -157.3541,49.046 -239.2981,56.4818 -52.3379,4.8484 -104.9061,8.0846 -157.4831,7.9314 -65.1049,-1.0601 -130.0245,-8.1431 -194.5107,-16.2937 -83.7701,-11.4485 -166.6483,-31.418 -244.3817,-64.7843 C 872.31465,6796.0027 736.58146,6687.9618 642.125,6549.75 558.67661,6429.4028 505.59279,6289.6476 479.64762,6145.7466 c -23.89835,-127.6733 -32.09411,-258.2541 -25.57947,-387.9904 5.10962,-82.519 21.30035,-164.1666 47.08619,-242.6425 8.47364,-27.2808 17.64601,-54.3294 29.25191,-80.4262 1.03125,0.3125 2.0625,0.625 3.09375,0.9375 z"
       id="path4891"
       inkscape:connector-curvature="0"
       style="fill:#d47a55;fill-opacity:0.33333334" />
  </g>
</svg>
