<?xml version="1.0" encoding="UTF-8" standalone="no"?>
<!-- Created with Inkscape (http://www.inkscape.org/) -->

<svg
   xmlns:dc="http://purl.org/dc/elements/1.1/"
   xmlns:cc="http://creativecommons.org/ns#"
   xmlns:rdf="http://www.w3.org/1999/02/22-rdf-syntax-ns#"
   xmlns:svg="http://www.w3.org/2000/svg"
   xmlns="http://www.w3.org/2000/svg"
   xmlns:sodipodi="http://sodipodi.sourceforge.net/DTD/sodipodi-0.dtd"
   xmlns:inkscape="http://www.inkscape.org/namespaces/inkscape"
   width="64px"
   height="64px"
   id="svg3007"
   version="1.1"
   inkscape:version="0.48.5 r10040"
   sodipodi:docname="favicon.svg"
   inkscape:export-filename="C:\Users\Esteban Gerpe\Desktop\Web\images\favicon.png"
   inkscape:export-xdpi="90"
   inkscape:export-ydpi="90">
  <defs
     id="defs3009" />
  <sodipodi:namedview
     id="base"
     pagecolor="#ffffff"
     bordercolor="#666666"
     borderopacity="1.0"
     inkscape:pageopacity="0.0"
     inkscape:pageshadow="2"
     inkscape:zoom="5.5"
     inkscape:cx="32"
     inkscape:cy="32"
     inkscape:current-layer="layer1"
     showgrid="true"
     inkscape:document-units="px"
     inkscape:grid-bbox="true"
     inkscape:window-width="1600"
     inkscape:window-height="837"
     inkscape:window-x="-8"
     inkscape:window-y="-8"
     inkscape:window-maximized="1" />
  <metadata
     id="metadata3012">
    <rdf:RDF>
      <cc:Work
         rdf:about="">
        <dc:format>image/svg+xml</dc:format>
        <dc:type
           rdf:resource="http://purl.org/dc/dcmitype/StillImage" />
        <dc:title></dc:title>
      </cc:Work>
    </rdf:RDF>
  </metadata>
  <g
     id="layer1"
     inkscape:label="Layer 1"
     inkscape:groupmode="layer">
    <g
       id="g3052"
       transform="translate(-0.54544977,-0.18182024)">
      <path
         inkscape:connector-curvature="0"
         id="path3020"
         d="M 47.093572,0.368937 C 44.336238,0.9008854 41.814489,2.305405 39.029541,2.7771755 34.35642,3.6896021 29.473677,3.5029888 24.815508,2.599995 22.29974,2.1185882 19.855024,1.2010586 17.345824,0.6836867 16.281968,0.5279111 15.41638,1.2921393 14.89533,2.1447869 c -2.484418,3.0386736 -5.0101879,6.05075 -7.4972174,9.0827081 -0.5958376,0.783599 -0.3764984,1.847617 0.2710201,2.531818 1.812816,2.675254 3.4071153,5.603859 3.6870393,8.865608 0.451375,4.052712 0.129243,8.197995 -1.282805,12.02213 -0.9385033,3.092145 -2.4852718,6.031795 -2.8231274,9.265775 -0.387567,4.313135 1.7432541,8.574436 5.1352794,11.174056 2.497984,2.108497 5.720781,3.004711 8.871257,3.599613 3.350331,0.64353 6.854329,1.583213 9.344646,4.079969 0.72272,0.658507 1.720686,1.686446 2.762747,1.022706 1.681937,-1.172483 3.102725,-2.771381 5.050156,-3.567065 3.996246,-1.655119 8.55474,-1.62433 12.389326,-3.729197 4.270498,-2.127574 7.287904,-6.68475 7.219962,-11.507103 0.149427,-2.341248 -0.671691,-4.541094 -1.54566,-6.666805 -1.714085,-4.440287 -3.275154,-9.033128 -3.233655,-13.853145 -0.188086,-2.978975 0.236594,-6.047298 1.760663,-8.641239 0.624567,-1.338661 1.671389,-2.410907 2.355784,-3.686282 0.322376,-1.154317 -0.915927,-1.935278 -1.42678,-2.8127481 C 53.595705,6.5804761 51.351014,3.7573979 48.853217,1.1844148 48.377752,0.6892536 47.803946,0.2943292 47.093531,0.3689533 z m -0.104908,4.058247 c 2.193391,2.296648 4.294628,4.7981979 6.318652,7.224722 -2.727302,3.496153 -3.984827,8.009502 -3.740266,12.432242 -0.202085,5.401034 1.591418,10.564694 3.491986,15.532324 1.06817,2.705106 1.966216,5.80998 0.763332,8.612094 -1.737565,3.612536 -5.563474,5.699392 -9.38022,6.480801 -3.13961,0.796132 -6.692343,1.002506 -9.289613,3.176015 -0.831641,0.631648 -1.622874,1.327901 -2.408246,2.021966 -1.997313,-1.616111 -4.13865,-3.110353 -6.680258,-3.689066 -3.956853,-1.167112 -8.492585,-1.285612 -11.722519,-4.146063 -1.997484,-1.826425 -3.685842,-4.390536 -3.481226,-7.234262 -0.114919,-1.460384 0.183529,-2.872262 0.79719,-4.196712 1.777307,-4.869728 3.65966,-9.873177 3.485166,-15.14076 0.156915,-4.695185 -1.499548,-9.274351 -4.139309,-13.090341 0.5514,-0.800119 1.237406,-1.562541 1.831811,-2.367511 1.551555,-1.9493761 3.118385,-3.9014781 4.749122,-5.7680505 5.668806,1.716388 11.573823,3.3043467 17.566927,2.6803084 3.46787,-0.364453 6.926519,-1.0041177 10.129791,-2.4205279 0.571584,-0.087247 1.331417,-0.8445249 1.70768,-0.1071871 z"
         style="fill:#800000;display:inline" />
      <path
         inkscape:connector-curvature="0"
         id="path3022"
         d="m 20.795374,20.598389 -0.619114,-0.676004 -0.819572,0 -0.819571,0 0.08611,-0.857229 0.08611,-0.85723 -0.50094,-0.663552 c -0.275579,-0.364942 -0.501022,-0.714256 -0.501022,-0.776192 0,-0.06185 0.244,-0.312528 0.542203,-0.556935 0.463909,-0.38016 0.553191,-0.527715 0.6183,-1.021876 0.04151,-0.317655 0.105968,-0.735986 0.142511,-0.929689 l 0.06674,-0.352163 0.80069,0.07487 c 0.881719,0.08237 1.360318,-0.107757 1.855243,-0.736963 0.233175,-0.296495 0.259138,-0.302029 0.543262,-0.115897 0.164077,0.107514 0.443724,0.386103 0.621393,0.619033 0.329781,0.432413 0.696677,0.601128 1.61585,0.743475 l 0.518682,0.08058 -0.07732,0.831568 -0.07732,0.831569 0.555306,0.593639 0.555307,0.59364 -0.691467,0.550343 c -0.637671,0.507532 -0.693991,0.592907 -0.723698,1.097257 -0.05779,0.98596 -0.113455,1.096281 -0.55083,1.096281 -0.217387,0 -0.585827,-0.05453 -0.818798,-0.12143 -0.409624,-0.117524 -0.445923,-0.09929 -1.106048,0.553923 l -0.682514,0.675353 -0.619115,-0.676005 z"
         style="fill:#800000;display:inline" />
      <path
         inkscape:connector-curvature="0"
         id="path3024"
         d="M 42.430592,21.267199 C 41.832313,20.654433 41.326401,20.482217 40.447489,20.59209 l -0.679178,0.08489 0.08579,-0.946341 0.08579,-0.946339 -0.620254,-0.627987 -0.620253,-0.627985 0.613335,-0.619847 0.613337,-0.619766 0,-0.867321 0,-0.867321 0.929427,0.07895 0.929438,0.07895 0.578339,-0.655984 0.578339,-0.655982 0.598116,0.528286 c 0.729964,0.64467 0.976958,0.745427 1.826912,0.745427 l 0.663471,0 0,0.881247 0,0.881255 0.619277,0.62709 0.619277,0.627092 -0.689107,0.614149 -0.689108,0.61415 0.08602,0.872684 0.08602,0.872686 -0.972222,-0.08139 -0.972214,-0.08139 L 43.59,21.12757 c -0.29039,0.344431 -0.563282,0.626194 -0.606256,0.626194 -0.04314,0 -0.291936,-0.21885 -0.553189,-0.486452 z"
         style="fill:#800000;display:inline" />
      <path
         inkscape:connector-curvature="0"
         id="path3026"
         d="m 31.809977,34.923281 -0.486046,-0.615697 -0.948432,0.08391 -0.948432,0.084 0,-0.79833 c 0,-1.030145 -0.137952,-1.388169 -0.7403,-1.921264 l -0.492232,-0.435667 0.626521,-0.586072 0.62652,-0.586071 -0.08196,-0.706118 c -0.05209,-0.4482 -0.03174,-0.800688 0.05616,-0.964921 0.126965,-0.237325 0.204607,-0.251975 0.93493,-0.17718 l 0.796457,0.08163 0.662738,-0.654517 0.662739,-0.654518 0.644751,0.636775 0.644752,0.636776 0.80427,0 0.804271,0 0.0757,0.457804 c 0.04151,0.251813 0.0765,0.663796 0.07732,0.915608 0.0013,0.465211 0.137789,0.657612 0.783273,1.104428 0.174251,0.120616 0.316842,0.263289 0.316842,0.317005 0,0.05371 -0.18475,0.287866 -0.410518,0.52031 -0.533332,0.549202 -0.687968,0.850979 -0.689597,1.3464 -7.31e-4,0.222676 -0.035,0.610813 -0.07732,0.862601 l -0.0757,0.457805 -0.66754,0 c -0.790598,0 -1.310248,0.221943 -1.868785,0.798248 -0.225282,0.232442 -0.439982,0.420366 -0.477176,0.417681 -0.03744,-0.0028 -0.28632,-0.282009 -0.553678,-0.62058 l 0,0 z"
         style="fill:#800000;display:inline" />
      <path
         inkscape:connector-curvature="0"
         id="path3028"
         d="M 20.874833,48.535885 C 20.296494,47.92849 19.827938,47.748624 19.060861,47.839452 l -0.627334,0.07406 0.07813,-0.667296 c 0.09327,-0.793771 -0.06022,-1.152886 -0.795238,-1.864944 l -0.498986,-0.483116 0.49044,-0.499719 c 0.554982,-0.56548 0.731512,-1.047798 0.731512,-1.998876 l 0,-0.658587 0.814858,0.08349 0.814868,0.08351 0.709698,-0.702292 c 0.799062,-0.790761 0.640438,-0.821778 1.462093,0.286076 l 0.378615,0.510543 0.82268,-0.06918 0.822673,-0.06918 0.08627,0.988931 0.08627,0.988939 0.585258,0.465943 0.585256,0.466025 -0.593314,0.645239 c -0.588594,0.640113 -0.593314,0.65175 -0.593314,1.477948 l 0,0.832707 -0.913241,0.04639 c -0.902294,0.04558 -0.920264,0.05291 -1.499686,0.623754 -0.322538,0.317736 -0.614963,0.577607 -0.649879,0.577607 -0.035,0 -0.252707,-0.198831 -0.484092,-0.441853 z"
         style="fill:#800000;display:inline" />
      <path
         inkscape:connector-curvature="0"
         id="path3030"
         d="m 43.075147,48.255082 -0.643449,-0.643449 -0.886552,0.0831 -0.886546,0.0831 0,-0.81298 0,-0.812979 -0.671447,-0.70392 c -0.369254,-0.38716 -0.671445,-0.735499 -0.671445,-0.774076 0,-0.03826 0.274682,-0.271753 0.610405,-0.518194 l 0.610406,-0.44812 0,-1.027288 0,-1.027297 0.995401,0 0.995401,0 0.450805,-0.488324 c 0.247906,-0.26858 0.503951,-0.488325 0.568817,-0.488325 0.0651,0 0.279322,0.171564 0.476524,0.381299 0.479534,0.509975 1.005842,0.717431 1.819611,0.717431 l 0.675354,0 0,0.829151 c 0,0.821435 0.0051,0.834165 0.549365,1.36831 0.636694,0.624893 0.677469,0.858434 0.213642,1.222204 -0.512334,0.401728 -0.631892,0.714256 -0.636613,1.663885 l -0.0044,0.871741 -0.912671,0.04639 c -0.890794,0.04476 -0.925832,0.0586 -1.460954,0.5842 l -0.548308,0.538052 -0.64353,-0.643449 0,0 z"
         style="fill:#800000;display:inline" />
    </g>
  </g>
</svg>
