<?xml version="1.0" encoding="UTF-8" standalone="no"?>
<svg
   xmlns:dc="http://purl.org/dc/elements/1.1/"
   xmlns:cc="http://creativecommons.org/ns#"
   xmlns:rdf="http://www.w3.org/1999/02/22-rdf-syntax-ns#"
   xmlns:svg="http://www.w3.org/2000/svg"
   xmlns="http://www.w3.org/2000/svg"
   xmlns:sodipodi="http://sodipodi.sourceforge.net/DTD/sodipodi-0.dtd"
   xmlns:inkscape="http://www.inkscape.org/namespaces/inkscape"
   version="1.0"
   width="333.000000pt"
   height="417.000000pt"
   viewBox="0 0 333.000000 417.000000"
   preserveAspectRatio="xMidYMid meet"
   id="svg2985"
   inkscape:version="0.48.5 r10040"
   sodipodi:docname="logo_rojo.svg">
  <defs
     id="defs3005" />
  <sodipodi:namedview
     pagecolor="#ffffff"
     bordercolor="#666666"
     borderopacity="1"
     objecttolerance="10"
     gridtolerance="10"
     guidetolerance="10"
     inkscape:pageopacity="0"
     inkscape:pageshadow="2"
     inkscape:window-width="1600"
     inkscape:window-height="837"
     id="namedview3003"
     showgrid="false"
     inkscape:zoom="1"
     inkscape:cx="208.125"
     inkscape:cy="252.27754"
     inkscape:window-x="-8"
     inkscape:window-y="-8"
     inkscape:window-maximized="1"
     inkscape:current-layer="layer1" />
  <metadata
     id="metadata2987">
Created by potrace 1.11, written by Peter Selinger 2001-2013
<rdf:RDF>
  <cc:Work
     rdf:about="">
    <dc:format>image/svg+xml</dc:format>
    <dc:type
       rdf:resource="http://purl.org/dc/dcmitype/StillImage" />
    <dc:title />
  </cc:Work>
</rdf:RDF>
</metadata>
  <g
     inkscape:groupmode="layer"
     id="layer1"
     inkscape:label="Capa"
     style="display:inline">
    <path
       style="fill:#800000"
       d="M 261.46875,-0.15625 C 243.39988,3.329404 226.87481,12.533492 208.625,15.625 178.00196,21.604145 146.0053,20.3811 115.48023,14.463808 98.994343,11.309227 82.974107,5.2965908 66.53125,1.90625 59.559809,0.88541162 53.887569,5.8933505 50.473115,11.480859 34.192712,31.393312 17.641282,51.131488 1.34375,71 c -3.9045497,5.135007 -2.4672067,12.107434 1.7762628,16.591 11.8793892,17.53099 22.3268492,36.72219 24.1612372,58.0965 2.957705,26.55748 0.846935,53.72158 -8.40625,78.78125 -6.150011,20.26288 -16.2860479,39.52643 -18.5,60.71875 -2.5397,28.26405 11.423543,56.18844 33.651562,73.22379 16.369326,13.817 37.488363,19.68994 58.133522,23.58831 21.954726,4.21705 44.916496,10.37483 61.235606,26.73612 4.73601,4.31539 11.27569,11.05129 18.10431,6.70178 11.02177,-7.68326 20.33222,-18.16088 33.09375,-23.375 26.18748,-10.84603 56.05936,-10.6443 81.1875,-24.4375 27.98465,-13.94206 47.75773,-43.80531 47.3125,-75.40625 0.97933,-15.34223 -4.40143,-29.75789 -10.12874,-43.68768 -11.23242,-29.09727 -21.4621,-59.19423 -21.19018,-90.77988 -1.23232,-19.52129 1.55065,-39.62809 11.53767,-56.62619 4.09288,-8.772248 10.95262,-15.798724 15.4375,-24.15625 2.11225,-7.564304 -6.00208,-12.681953 -9.34973,-18.432047 C 304.07763,40.547972 289.36812,22.04828 273,5.1875 269.88417,1.9429669 266.12411,-0.64523479 261.46875,-0.15625 z m -0.6875,26.59375 c 14.37336,15.050016 28.14276,31.442695 41.40625,47.34375 -17.87207,22.910339 -26.11264,52.48643 -24.51,81.4687 -1.32435,35.39309 10.42858,69.23063 22.88299,101.78359 6.99976,17.72658 12.88467,38.0729 5.00201,56.43521 -11.38628,23.67301 -36.45755,37.3482 -61.46875,42.46875 -20.57391,5.21728 -43.85505,6.56949 -60.875,20.8125 -5.44975,4.13904 -10.6347,8.70176 -15.78125,13.25 C 154.34903,379.4096 140.31681,369.61777 123.66166,365.82548 97.732325,358.17739 68.009552,357.40083 46.84375,338.65625 33.754241,326.68764 22.690402,309.88499 24.03125,291.25 23.277923,281.6801 25.233605,272.42804 29.255392,263.74886 40.902112,231.83746 53.237199,199.0498 52.09375,164.53125 53.122129,133.76358 42.267154,103.75623 24.96875,78.75 28.581913,73.506721 33.077501,68.510657 36.972647,63.235668 47.140039,50.461392 57.407483,37.669207 68.09375,25.4375 c 37.14778,11.24752 75.84346,21.653476 115.11635,17.564141 22.72501,-2.388503 45.38963,-6.58002 66.38069,-15.861779 3.74538,-0.571944 8.72482,-5.534161 11.19046,-0.702362 z"
       id="path3020"
       inkscape:connector-curvature="0" />
    <path
       style="fill:#800000"
       d="m 111.4203,165.50962 -5.07161,-5.53716 -6.713338,0 -6.713335,0 0.705173,-7.02181 0.705173,-7.02181 -4.103682,-5.43528 C 87.971657,137.50415 86.125,134.64317 86.125,134.13583 c 0,-0.50735 1.998715,-2.56025 4.441589,-4.562 3.80003,-3.11384 4.531541,-4.3229 5.064336,-8.37046 0.34251,-2.602 0.867836,-6.02891 1.167391,-7.61534 l 0.544645,-2.88443 6.558549,0.61245 c 7.22237,0.67443 11.14275,-0.8829 15.19679,-6.03678 1.91026,-2.4285 2.12283,-2.47384 4.44981,-0.94915 1.34405,0.88065 3.63449,3.16236 5.08987,5.07047 2.70145,3.54178 5.70639,4.92432 13.23585,6.08967 l 4.24883,0.6576 -0.63307,6.81162 -0.63308,6.81163 4.54854,4.86275 4.54853,4.86275 -5.66429,4.50799 c -5.22362,4.15728 -5.68481,4.85652 -5.92801,8.98793 -0.47542,8.07628 -0.92946,8.97993 -4.51193,8.97993 -1.78066,0 -4.7988,-0.44776 -6.70699,-0.99502 -3.35554,-0.96236 -3.65295,-0.81342 -9.05994,4.53716 l -5.59051,5.53217 -5.07161,-5.53715 z"
       id="path3022"
       inkscape:connector-curvature="0"
       transform="scale(0.8,0.8)" />
    <path
       style="fill:#800000"
       d="m 288.64023,170.98806 c -4.90096,-5.01904 -9.04473,-6.42978 -16.24414,-5.53027 l -5.5633,0.69509 0.70244,-7.75172 0.70244,-7.75172 -5.08033,-5.14424 -5.08033,-5.14423 5.02399,-5.07704 5.024,-5.07704 0,-7.10446 0,-7.10446 7.61324,0.64355 7.61324,0.64355 4.73715,-5.37299 4.73714,-5.37299 4.89961,4.3272 c 5.97903,5.28051 8.0025,6.10617 14.96472,6.10617 l 5.4349,0 0,7.21855 0,7.21856 5.07278,5.13659 5.07278,5.13658 -5.64456,5.03092 -5.64456,5.03092 0.70439,7.14839 0.70438,7.1484 -7.96372,-0.66415 -7.96372,-0.66415 -4.32542,5.1297 c -2.37898,2.82133 -4.61366,5.12969 -4.96594,5.12969 -0.35228,0 -2.39131,-1.79298 -4.53118,-3.9844 z"
       id="path3024"
       inkscape:connector-curvature="0"
       transform="scale(0.8,0.8)" />
    <path
       style="fill:#800000"
       d="m 201.64386,282.84873 -3.98115,-5.04351 -7.76885,0.6877 -7.76886,0.6877 0,-6.53898 c 0,-8.43817 -1.12999,-11.37088 -6.06378,-15.73762 l -4.03183,-3.56845 5.13218,-4.80055 5.13218,-4.80056 -0.67133,-5.78426 c -0.42614,-3.67163 -0.257,-6.55846 0.46311,-7.90398 1.04028,-1.94379 1.67593,-2.06425 7.65828,-1.45134 l 6.52384,0.66838 5.42867,-5.36124 5.42868,-5.36124 5.28144,5.21584 5.28145,5.21584 6.58771,0 6.58771,0 0.61984,3.75 c 0.34091,2.0625 0.62479,5.4375 0.63084,7.5 0.0112,3.81057 1.1289,5.38664 6.41574,9.04668 1.4274,0.98818 2.59527,2.15665 2.59527,2.5966 0,0.43995 -1.51314,2.35795 -3.36254,4.26221 -4.36886,4.49847 -5.635,6.97064 -5.64847,11.02877 -0.006,1.82365 -0.28993,5.00324 -0.63084,7.06574 l -0.61984,3.75 -5.46802,0 c -6.47582,0 -10.73255,1.81824 -15.30772,6.53861 -1.8452,1.90376 -3.60413,3.44334 -3.90874,3.42128 -0.30461,-0.0221 -2.34534,-2.30969 -4.53497,-5.08362 l 0,0 z"
       id="path3026"
       inkscape:connector-curvature="0"
       transform="scale(0.8,0.8)" />
    <path
       style="fill:#800000"
       d="m 112.07117,394.35322 c -4.73743,-4.97536 -8.57543,-6.44888 -14.858748,-5.70471 l -5.138344,0.60856 0.642401,-5.46583 c 0.764194,-6.5021 -0.490028,-9.44357 -6.513669,-15.27623 l -4.087032,-3.95745 4.017274,-4.09331 C 90.679266,355.832 92.125,351.88146 92.125,344.09096 l 0,-5.39469 6.674765,0.68385 6.674765,0.68385 5.81354,-5.75288 c 6.54549,-6.47719 5.24611,-6.7314 11.97642,2.34308 l 3.10147,4.18172 6.73877,-0.56495 6.73877,-0.56496 0.70663,8.10063 0.70663,8.10062 4.79399,3.81704 4.794,3.81703 -4.85988,5.28533 c -4.82159,5.2437 -4.85987,5.33906 -4.85987,12.10628 l 0,6.82095 -7.48057,0.37775 c -7.39092,0.37322 -7.53813,0.43445 -12.28435,5.1093 -2.64208,2.60235 -5.03755,4.73155 -5.32326,4.73155 -0.28572,0 -2.07026,-1.62866 -3.96565,-3.61924 z"
       id="path3028"
       inkscape:connector-curvature="0"
       transform="scale(0.8,0.8)" />
    <path
       style="fill:#800000"
       d="m 293.91994,392.05311 -5.27102,-5.27102 -7.26196,0.68051 -7.26196,0.6805 0,-6.65956 0,-6.65956 -5.5,-5.76617 c -3.025,-3.1714 -5.5,-6.02467 -5.5,-6.3406 0,-0.31593 2.25,-2.22607 5,-4.24475 l 5,-3.67034 0,-8.41483 0,-8.41483 8.15361,0 8.15361,0 3.69278,-4 c 2.03103,-2.2 4.12771,-4 4.6593,-4 0.53158,0 2.28821,1.40542 3.90361,3.12316 3.92822,4.17708 8.23919,5.87684 14.90497,5.87684 l 5.53212,0 0,6.79179 c 0,6.72858 0.0419,6.8329 4.5,11.20821 5.21525,5.11838 5.54969,7.03166 1.75,10.01141 -4.19648,3.29091 -5.17597,5.851 -5.21457,13.62929 l -0.0354,7.1407 -7.47598,0.37752 c -7.29671,0.36846 -7.58368,0.48321 -11.96702,4.78514 l -4.49104,4.40762 -5.27102,-5.27103 0,0 z"
       id="path3030"
       inkscape:connector-curvature="0"
       transform="scale(0.8,0.8)" />
  </g>
</svg>
