<?xml version="1.0" encoding="UTF-8" standalone="no"?>
<svg
   xmlns:osb="http://www.openswatchbook.org/uri/2009/osb"
   xmlns:dc="http://purl.org/dc/elements/1.1/"
   xmlns:cc="http://creativecommons.org/ns#"
   xmlns:rdf="http://www.w3.org/1999/02/22-rdf-syntax-ns#"
   xmlns:svg="http://www.w3.org/2000/svg"
   xmlns="http://www.w3.org/2000/svg"
   xmlns:sodipodi="http://sodipodi.sourceforge.net/DTD/sodipodi-0.dtd"
   xmlns:inkscape="http://www.inkscape.org/namespaces/inkscape"
   version="1.0"
   width="333.000000pt"
   height="417.000000pt"
   viewBox="0 0 333.000000 417.000000"
   preserveAspectRatio="xMidYMid meet"
   id="svg3082"
   inkscape:version="0.48.5 r10040"
   sodipodi:docname="logo_sombra.svg"
   enable-background="new">
  <defs
     id="defs3102">
    <linearGradient
       id="linearGradient4203">
      <stop
         style="stop-color:#000000;stop-opacity:1;"
         offset="0"
         id="stop4205" />
      <stop
         style="stop-color:#000000;stop-opacity:0;"
         offset="1"
         id="stop4207" />
    </linearGradient>
    <linearGradient
       id="linearGradient4193"
       osb:paint="gradient">
      <stop
         style="stop-color:#000000;stop-opacity:1;"
         offset="0"
         id="stop4195" />
      <stop
         style="stop-color:#000000;stop-opacity:0;"
         offset="1"
         id="stop4197" />
    </linearGradient>
  </defs>
  <sodipodi:namedview
     pagecolor="#ffffff"
     bordercolor="#666666"
     borderopacity="1"
     objecttolerance="10"
     gridtolerance="10"
     guidetolerance="10"
     inkscape:pageopacity="0"
     inkscape:pageshadow="2"
     inkscape:window-width="1600"
     inkscape:window-height="837"
     id="namedview3100"
     showgrid="false"
     inkscape:zoom="1"
     inkscape:cx="283.56405"
     inkscape:cy="300.625"
     inkscape:window-x="-8"
     inkscape:window-y="-8"
     inkscape:window-maximized="1"
     inkscape:current-layer="svg3082" />
  <metadata
     id="metadata3084">
Created by potrace 1.11, written by Peter Selinger 2001-2013
<rdf:RDF>
  <cc:Work
     rdf:about="">
    <dc:format>image/svg+xml</dc:format>
    <dc:type
       rdf:resource="http://purl.org/dc/dcmitype/StillImage" />
    <dc:title></dc:title>
  </cc:Work>
</rdf:RDF>
</metadata>
  <path
     style="fill:#000000;fill-opacity:1;fill-rule:nonzero;stroke:none;stroke-width:14.51999474000000000;marker-start:none"
     d="m 256.40625,7 c -21.2341,4.258336 -40.4931,15.712817 -62.33404,17.295239 C 154.03917,29.904127 113.26902,22.764431 75.40625,9.71875 67.792635,7.0819927 59.444494,10.239201 54.9375,16.75 38.955305,36.744355 22.710285,56.736435 5.90625,75.96875 0.40603855,83.620899 4.6453475,93.734446 10.75,99.53125 c 24.349695,32.56139 25.949213,76.93642 14.601848,114.77447 -6.288194,25.30508 -21.8007473,48.64405 -20.8351836,75.53789 0.562362,35.93195 27.5620966,66.95058 60.3895856,78.96889 24.88537,9.0932 53.39703,8.16759 75.96875,23.53125 8.95949,5.19344 14.51,16.87994 25.875,17.15625 9.56423,-1.75575 15.56692,-10.96865 23.125,-16.28125 19.81285,-15.05811 46.12871,-15.17694 69.27402,-22.08722 25.55964,-7.28404 48.99196,-23.83115 60.19473,-48.31903 11.71085,-24.35947 9.64137,-53.94122 -2.44635,-77.77958 C 302.94926,210.16613 292.05967,171.90056 298.3125,134.09375 301.11974,117.46046 309.05358,101.94572 320.375,89.4375 324.7607,84.302281 323.66643,76.990853 319.5625,72 311.4205,60.184932 300.73374,50.587373 292.11362,39.166127 282.58131,28.138982 274.21196,15.454344 261.75,7.6875 260.02577,7.1570804 258.23106,6.8230002 256.40625,7 z M 253.125,37.28125 c 12.88158,14.068479 25.50036,28.561785 37.5,43.28125 -23.1421,30.12766 -26.27057,70.72993 -20.5625,107.21875 4.12831,30.7847 18.15261,59.06508 27.0625,88.46875 3.82887,15.83564 0.0628,33.593 -11.78125,45.1875 -17.53728,19.6683 -44.92549,24.36085 -69.53125,29.125 -15.60785,2.71353 -30.72332,8.86879 -42.22444,20.02993 -3.38432,1.80133 -6.48307,9.09086 -9.90056,4.03257 C 147.12142,360.47893 126.08832,353.53002 104.84192,350.08721 84.11885,346.22708 61.761393,340.70958 47.65625,323.9375 33.334336,308.86535 29.113883,285.86852 36.15625,266.59375 50.074721,232.87327 62.015057,197.04363 60.1875,160 59.120304,133.1072 50.351016,106.89199 34.65625,85.09375 47.40442,69.198715 60.240057,53.593279 73.25,37.90625 c 34.20165,10.861593 69.93337,20.000366 106.15625,16.65625 25.06295,-2.153364 49.96196,-7.601707 72.90625,-18.125 l 0.69364,0.72032 0.11886,0.12343 z"
     id="path3088"
     inkscape:connector-curvature="0" />
  <path
     style="fill:#000000;stroke:none"
     id="path3090"
     d="m 98.692948,89.17055 c 0,0.475 -1.710001,2.185 -3.895,3.705 -3.23,2.375 -4.37,2.755 -6.270001,1.995 -1.235,-0.475 -3.515,-0.855 -4.94,-0.855 -2.659999,0 -2.754999,0.19 -3.42,6.08 -0.569999,5.7 -0.854999,6.27 -4.369999,8.645 -1.995,1.425 -3.705001,3.04 -3.705001,3.515 0,0.57 1.520001,2.755 3.42,4.845 3.23,3.895 3.325,4.18 2.755001,9.405 l -0.665001,5.51 5.225001,0 c 5.035,0 5.319999,0.095 9.024999,4.465 l 3.895,4.56 4.275003,-4.18 4.37,-4.275 4.94,1.045 c 5.985,1.235 6.46,0.76 6.46,-5.7 0,-4.275 0.19,-4.655 4.845,-7.885 l 4.75,-3.515 -3.99,-4.085 c -3.705,-3.8 -3.895,-4.275 -3.325,-7.79 0.285,-2.09 0.76,-4.465 1.14,-5.225 0.38,-1.045 -0.76,-1.52 -5.32,-1.995 -5.415,-0.665 -5.89,-0.95 -8.835,-4.845 -2.755,-3.8 -6.365002,-5.7 -6.365002,-3.42 z"
     inkscape:connector-curvature="0" />
  <path
     style="fill:#000000;stroke:none"
     id="path3092"
     d="m 226.46795,94.68055 -3.515,4.18 -5.89,-0.19 -5.795,-0.285 -0.095,5.51 c -0.19,5.13 -0.38,5.7 -4.085,8.93 -2.185,1.805 -3.895,3.705 -3.895,4.18 0,0.38 1.805,2.375 3.895,4.275 l 3.895,3.515 -0.57,5.985 -0.665,5.985 5.985,-0.285 c 5.89,-0.285 6.08,-0.285 10.26,3.705 l 4.37,4.085 3.895,-4.275 3.99,-4.18 5.89,0.665 5.89,0.57 -0.665,-5.415 -0.57,-5.51 4.465,-4.085 4.465,-4.085 -4.275,-3.895 c -4.18,-3.99 -4.18,-3.99 -3.895,-9.595 l 0.38,-5.7 -5.605,0 c -5.225,0 -5.795,-0.19 -9.88,-4.18 l -4.37,-4.18 -3.61,4.275 z"
     inkscape:connector-curvature="0" />
  <path
     style="fill:#000000;stroke:none"
     id="path3094"
     d="m 160.72795,180.08555 c -3.99,4.275 -4.085,4.37 -8.36,3.8 -7.125,-1.14 -7.79,-0.57 -7.315,6.08 l 0.38,5.7 -3.99,3.61 -4.085,3.61 3.99,3.325 c 3.895,3.42 3.895,3.42 3.895,9.975 l 0,6.555 6.08,-0.285 5.985,-0.38 3.515,4.085 3.42,4.085 4.085,-3.99 c 3.705,-3.61 4.465,-3.895 9.69,-4.18 l 5.7,-0.285 0.285,-6.175 c 0.285,-5.89 0.475,-6.365 4.18,-9.69 3.42,-3.04 3.8,-3.705 2.66,-5.035 -0.665,-0.855 -2.47,-2.185 -3.895,-2.945 -2.47,-1.235 -2.66,-1.805 -2.945,-7.79 l -0.285,-6.365 -5.32,0.285 c -5.225,0.285 -5.415,0.19 -9.5,-4.085 l -4.18,-4.37 -3.99,4.465 z"
     inkscape:connector-curvature="0" />
  <path
     style="fill:#000000;stroke:none"
     id="path3096"
     d="m 91.852947,263.97055 -4.274999,4.56 -4.655,-0.665 c -2.565001,-0.38 -4.940001,-0.57 -5.320001,-0.285 -0.474999,0.19 -0.76,3.04 -0.76,6.365 0,5.605 -0.19,6.08 -3.8,9.595 l -3.8,3.705 4.370001,4.465 c 4.179999,4.275 4.369999,4.56 3.989999,9.5 l -0.284999,5.13 5.129999,-0.285 c 4.845,-0.38 5.225001,-0.19 9.31,3.8 l 4.275001,4.085 3.515,-3.99 c 3.420002,-3.8 3.895002,-3.99 9.595002,-4.275 l 6.08,-0.285 -0.285,-5.13 c -0.19,-4.845 -0.095,-5.225 3.895,-9.31 l 4.085,-4.18 -3.325,-2.755 c -1.805,-1.52 -3.61,-2.85 -3.99,-2.85 -0.38,0 -0.76,-2.85 -0.95,-6.46 l -0.285,-6.365 -5.225,0.285 -5.225,0.285 -3.705,-4.75 c -1.995003,-2.66 -3.705003,-4.845 -3.895002,-4.845 -0.095,0 -2.090001,2.09 -4.465001,4.655 z"
     inkscape:connector-curvature="0" />
  <path
     style="fill:#000000;stroke:none"
     id="path3098"
     d="m 230.17295,263.78055 c -2.755,3.42 -2.945,3.42 -9.215,3.23 l -6.365,-0.19 0,6.46 -0.095,6.46 -4.18,3.23 -4.275,3.135 4.75,4.465 c 4.655,4.37 4.75,4.655 4.75,9.975 l 0,5.415 5.7,-0.665 5.605,-0.57 3.515,3.895 c 1.995,2.09 4.085,3.895 4.655,3.895 0.665,0 2.375,-1.52 3.705,-3.325 2.47,-3.23 2.85,-3.325 8.74,-3.325 l 6.08,0 0,-6.555 c 0,-6.27 0.095,-6.65 3.325,-9.31 1.805,-1.615 3.325,-3.23 3.325,-3.705 0,-0.475 -1.71,-2.375 -3.895,-4.37 -3.8,-3.515 -3.895,-3.705 -3.515,-9.025 l 0.285,-5.51 -5.985,0 c -5.605,0 -6.08,-0.19 -9.31,-3.61 -1.805,-1.9 -3.705,-3.515 -4.085,-3.515 -0.38,0 -1.995,1.52 -3.515,3.515 z"
     inkscape:connector-curvature="0" />
</svg>
