<?xml version="1.0" encoding="UTF-8" standalone="no"?>
<svg
   xmlns:dc="http://purl.org/dc/elements/1.1/"
   xmlns:cc="http://creativecommons.org/ns#"
   xmlns:rdf="http://www.w3.org/1999/02/22-rdf-syntax-ns#"
   xmlns:svg="http://www.w3.org/2000/svg"
   xmlns="http://www.w3.org/2000/svg"
   xmlns:sodipodi="http://sodipodi.sourceforge.net/DTD/sodipodi-0.dtd"
   xmlns:inkscape="http://www.inkscape.org/namespaces/inkscape"
   version="1.0"
   width="333.000000pt"
   height="417.000000pt"
   viewBox="0 0 333.000000 417.000000"
   preserveAspectRatio="xMidYMid meet"
   id="svg3007"
   inkscape:version="0.48.5 r10040"
   sodipodi:docname="logo.svg">
  <defs
     id="defs3027" />
  <sodipodi:namedview
     pagecolor="#ffffff"
     bordercolor="#666666"
     borderopacity="1"
     objecttolerance="10"
     gridtolerance="10"
     guidetolerance="10"
     inkscape:pageopacity="0"
     inkscape:pageshadow="2"
     inkscape:window-width="1600"
     inkscape:window-height="837"
     id="namedview3025"
     showgrid="false"
     inkscape:zoom="1.2470024"
     inkscape:cx="115.90385"
     inkscape:cy="260.625"
     inkscape:window-x="-8"
     inkscape:window-y="-8"
     inkscape:window-maximized="1"
     inkscape:current-layer="svg3007" />
  <metadata
     id="metadata3009">
Created by potrace 1.11, written by Peter Selinger 2001-2013
<rdf:RDF>
  <cc:Work
     rdf:about="">
    <dc:format>image/svg+xml</dc:format>
    <dc:type
       rdf:resource="http://purl.org/dc/dcmitype/StillImage" />
    <dc:title></dc:title>
  </cc:Work>
</rdf:RDF>
</metadata>
  <g
     inkscape:groupmode="layer"
     id="layer1"
     inkscape:label="Capa"
     style="display:inline">
    <path
       style="fill:#ffffff"
       d="m 206.0632,516.32169 c -1.35452,-0.36116 -5.15349,-3.0989 -8.44215,-6.08388 C 173.1604,488.03593 158.63657,481.60049 112.25572,472.41287 94.580687,468.91161 78.143022,463.87573 66.707242,458.45855 53.410881,452.16 38.050329,439.98049 28.200267,427.92605 18.64604,416.23365 13.567108,407.35703 9.7895562,395.74904 5.7540326,383.34833 4.9324949,378.10271 4.8914475,364.47404 4.8553217,352.47943 5.0226,351.00435 7.4583298,341.83917 11.124975,328.0423 13.664048,320.22043 18.072446,309.14135 36.622289,262.52229 43.012203,227.54258 39.679897,190.85769 36.964324,160.96233 29.022,138.89912 12.141519,114.35804 4.2184211,102.83934 2.8326923,100.28284 2.8326923,97.184424 c 0,-3.419456 3.9492081,-8.940576 16.4563777,-23.006539 C 26.395451,66.185821 36.389661,54.071069 53.359209,32.878846 68.266477,14.262075 72.805903,9.1705547 75.943106,7.5482443 79.671392,5.6202722 84.82292,6.2315384 96.5692,9.9956815 c 14.77784,4.7356145 43.00703,11.9385205 56.3481,14.3776705 17.75632,3.24639 27.62265,3.968513 54.80674,4.011336 41.83911,0.06591 53.06707,-2.106633 105.05192,-20.3268937 16.02855,-5.617875 18.83626,-5.3837753 26.55491,2.2140847 10.01323,9.856533 63.66153,73.576027 66.48112,78.961374 l 2.27526,4.345701 -3.29999,4.734081 c -20.26998,29.078795 -25.36912,39.444935 -29.94153,60.868695 -2.43856,11.42573 -3.04177,40.16345 -1.18669,56.53558 3.72148,32.84398 8.13971,49.54653 24.28866,91.82019 13.96947,36.56835 14.28307,37.97052 13.69243,61.22246 -0.37143,14.62245 -0.44603,15.15592 -3.30424,23.62712 -4.83623,14.33372 -10.67347,25.58059 -18.04776,34.77345 -10.69559,13.33323 -20.27023,20.89492 -37.008,29.22758 -17.66576,8.79464 -26.59139,11.62084 -54.13686,17.14181 -39.84352,7.98587 -51.00043,12.71419 -72.74288,30.82856 -7.29609,6.07864 -14.30261,11.40482 -15.57003,11.83596 -1.32159,0.44957 -3.35475,0.50384 -4.76716,0.12725 l 0,0 z m 9.86481,-28.84357 c 11.77609,-10.78182 25.03877,-20.48903 32.69411,-23.92948 6.2424,-2.80544 12.83688,-4.56981 34.88365,-9.33321 11.24697,-2.43001 23.87726,-5.28545 28.06731,-6.34543 34.50691,-8.7294 57.11404,-24.25853 71.67862,-49.23695 5.14874,-8.83016 6.94146,-15.56324 7.46224,-28.02669 0.27615,-6.60894 0.0973,-13.23618 -0.45164,-16.73099 -1.12372,-7.15484 -8.1361,-28.89838 -15.33209,-47.54075 -18.14268,-47.00159 -25.00381,-82.26171 -23.85435,-122.59032 0.32417,-11.37332 0.90056,-16.7247 2.94788,-27.3693 4.27046,-22.20325 10.05648,-36.33477 22.25455,-54.3535 3.66627,-5.415735 6.66594,-10.158172 6.66594,-10.538757 0,-0.380585 -1.55445,-2.445111 -3.45436,-4.587842 -1.89989,-2.142722 -9.19078,-10.571872 -16.20198,-18.731439 -18.91226,-22.009906 -37.3307,-42.571641 -38.5549,-43.041409 -0.59289,-0.227512 -6.59312,1.764522 -13.33385,4.426743 -25.51815,10.07828 -29.69052,11.340469 -49.25161,14.89915 -38.70045,7.040635 -58.33178,7.614906 -95.65855,2.798276 -20.07101,-2.589954 -24.18178,-3.5915 -72.54109,-17.673845 -4.357265,-1.268846 -8.574851,-2.306992 -9.372428,-2.306992 -1.611633,0 -3.580282,2.19008 -20.183644,22.453846 C 36.730444,83.478877 27.484679,95.007155 26.714,96.698611 c -0.708827,1.555707 0.0085,3.126385 5.158551,11.295059 11.184835,17.74068 14.865262,25.02484 18.99888,37.60181 7.72816,23.51375 10.016355,37.86529 9.965499,62.50356 -0.04444,21.53195 -1.463697,32.20938 -7.529922,56.64963 -4.659361,18.77215 -8.236456,29.71697 -19.619653,60.03018 -7.525752,20.04091 -8.719725,26.18445 -8.182153,42.10096 0.466029,13.79826 1.683929,18.68731 7.580556,30.43081 5.880595,11.71157 9.389822,16.60249 17.649924,24.59924 9.670323,9.36202 16.294222,14.12644 25.993005,18.69619 12.385564,5.83567 21.969322,8.62058 49.853443,14.48674 36.81068,7.74408 52.68176,14.13879 69.91499,28.16983 6.91046,5.6264 12.50922,9.92007 12.93534,9.92007 0.1457,0 3.06869,-2.56706 6.49555,-5.70457 l 0,0 z"
       id="path3044"
       inkscape:connector-curvature="0"
       transform="scale(0.8,0.8)" />
    <path
       style="fill:#ffffff"
       d="m 112.20129,166.39571 c -5.06508,-5.89037 -6.95609,-6.81302 -13.963645,-6.81302 l -5.717002,0 0.435622,-2.20529 c 0.451348,-2.2849 0.706387,-7.07106 0.571435,-10.72375 -0.04589,-1.24205 -1.744107,-4.18772 -4.147977,-7.19492 l -4.070277,-5.09185 4.803053,-4.45855 c 3.601382,-3.34307 4.911259,-5.15436 5.235551,-7.23969 0.237874,-1.52963 0.649096,-4.2246 0.913827,-5.98883 0.858654,-5.72229 1.065784,-6.01443 4.264283,-6.01443 1.62716,0 4.17152,0.3479 5.65414,0.77311 3.56605,1.02273 6.83021,-0.36646 11.60026,-4.93697 3.32101,-3.18209 3.86193,-3.43364 5.51788,-2.56599 1.00976,0.52906 3.02865,2.44611 4.48641,4.26011 3.69186,4.59402 5.54591,5.61249 12.29774,6.75542 6.63282,1.12278 6.30381,0.51621 5.10484,9.41138 l -0.60318,4.47493 4.50499,5.04884 c 2.47775,2.77685 4.50499,5.32081 4.50499,5.65323 0,0.33242 -2.07498,2.16205 -4.61106,4.06583 -2.53608,1.90378 -5.01533,3.99789 -5.50944,4.65356 -0.49412,0.65568 -1.11175,3.73712 -1.37253,6.84765 -0.61795,7.37091 -1.23351,7.82304 -8.7111,6.39824 -6.50124,-1.23875 -5.90157,-1.47909 -12.76862,5.11759 l -4.50448,4.32714 -3.91571,-4.55374 0,0 z"
       id="path3046"
       inkscape:connector-curvature="0"
       transform="scale(0.8,0.8)" />
    <path
       style="fill:#ffffff"
       d="m 287.70005,170.41969 c -5.6991,-4.9363 -8.11802,-5.67721 -15.83633,-4.85065 -4.07045,0.43591 -5.19701,0.32535 -5.19225,-0.50954 0.003,-0.58643 0.36199,-4.13359 0.79699,-7.88258 l 0.7909,-6.81634 -4.8066,-4.46242 c -2.64363,-2.45433 -4.80661,-5.03993 -4.80661,-5.74579 0,-0.70585 1.62058,-2.70986 3.60129,-4.45335 5.00176,-4.40272 6.011,-6.70331 6.01685,-13.7155 l 0.005,-5.92321 7.67438,0.40142 7.67438,0.40142 4.69674,-5.45705 c 4.15605,-4.82884 4.81889,-5.30889 5.75783,-4.17003 0.5836,0.70787 3.1548,3.03208 5.71378,5.1649 l 4.65269,3.87788 7.075,0 7.07499,0 -0.4095,7.18214 -0.40951,7.18214 5.33861,5.52984 5.33861,5.52984 -5.72757,5.14174 -5.72757,5.14175 0.78624,6.80541 c 0.43243,3.74297 0.66698,6.94541 0.52121,7.11652 -0.14577,0.17111 -3.53675,-0.0542 -7.53553,-0.50062 l -7.27049,-0.81173 -4.90849,5.11167 c -2.69966,2.81143 -5.12193,5.10163 -5.38281,5.08934 -0.26089,-0.0123 -2.73686,-1.98202 -5.50217,-4.3772 l 0,0 z"
       id="path3048"
       inkscape:connector-curvature="0"
       transform="scale(0.8,0.8)" />
    <path
       style="fill:#ffffff"
       d="m 201.77408,283.27818 -4.34611,-5.22141 -7.80931,0.53785 -7.80931,0.53786 -0.27439,-8.50072 -0.27438,-8.50072 -4.71142,-4.52589 -4.71142,-4.52588 4.9303,-4.44685 4.93031,-4.44684 -0.0184,-7.37046 c -0.0123,-4.93198 0.30365,-7.56951 0.95502,-7.97207 0.53538,-0.33089 4.02338,-0.50612 7.75111,-0.38941 l 6.77768,0.2122 4.90418,-5.25381 4.90417,-5.25382 5.36654,5.36654 5.36653,5.36653 6.76435,-0.18913 6.76435,-0.18914 0.53725,7.03436 c 0.70391,9.21651 0.83651,9.58085 4.28429,11.77196 1.619,1.0289 3.58814,2.59181 4.37587,3.47315 1.39474,1.56048 1.3269,1.7034 -2.59072,5.45791 -4.5512,4.3617 -5.32008,6.2554 -6.05892,14.92255 -0.58947,6.91505 -0.75351,7.06317 -7.84442,7.08342 -5.23665,0.015 -9.06426,1.77973 -13.80741,6.36613 l -4.00962,3.87711 -4.34611,-5.22142 0,0 z"
       id="path3050"
       inkscape:connector-curvature="0"
       transform="scale(0.8,0.8)" />
    <path
       style="fill:#ffffff"
       d="m 293.62742,391.87397 -4.90915,-5.07795 -4.81154,0.59971 c -2.64635,0.32983 -5.98435,0.63015 -7.41779,0.66737 l -2.60625,0.0677 0,-6.05425 c 0,-7.44236 -0.89986,-9.31375 -7.17024,-14.91148 l -4.81094,-4.29485 5.38915,-4.05959 5.38915,-4.05959 0.22727,-8.53763 0.22728,-8.53764 8.01698,0.16742 8.01699,0.16742 4.06284,-4.2101 c 2.23457,-2.31555 4.31548,-4.2101 4.62425,-4.2101 0.30876,0 1.98787,1.47321 3.73135,3.27379 4.66916,4.8221 6.54312,5.54737 14.33332,5.54737 l 6.83244,0 -0.17675,7.18319 -0.17674,7.18319 4.61106,4.66843 c 2.53608,2.56763 4.61105,4.98396 4.61105,5.36961 0,0.38565 -1.80432,2.609 -4.00961,4.94076 l -4.00962,4.23958 0,8.06723 0,8.06724 -5.81923,0 c -8.06092,0 -10.61974,0.92201 -14.36402,5.17574 -1.76485,2.00498 -3.58531,3.64541 -4.04546,3.64541 -0.46015,0 -3.04575,-2.28508 -5.74579,-5.07795 z"
       id="path3052"
       inkscape:connector-curvature="0"
       transform="scale(0.8,0.8)" />
    <path
       style="fill:#ffffff"
       d="m 113.07883,395.30083 c -5.96545,-6.16254 -7.19078,-6.72645 -14.175419,-6.52374 l -6.255334,0.18153 0,-6.24991 c 0,-7.04917 -0.385182,-7.88107 -6.656403,-14.3762 l -4.017321,-4.16076 3.780867,-3.67458 c 4.868848,-4.73198 6.090934,-7.78095 6.090934,-15.1962 0,-3.29607 0.327939,-6.19553 0.728754,-6.44325 0.400815,-0.24772 3.514174,-0.063 6.918577,0.41053 l 6.189825,0.86093 5.17523,-5.67036 c 2.84637,-3.1187 5.48625,-5.67036 5.86638,-5.67036 0.38014,0 2.73866,2.61628 5.24115,5.81394 l 4.54999,5.81395 6.60921,-0.27696 c 7.56428,-0.31697 7.60627,-0.27515 7.62724,7.5945 0.0191,7.18603 0.60647,8.43609 5.73486,12.20609 l 4.74093,3.48516 -4.79289,5.12362 c -5.3314,5.69928 -6.19829,8.16136 -5.36624,15.24079 l 0.51023,4.34122 -6.22191,0.0799 c -3.42205,0.044 -7.0689,0.31786 -8.1041,0.60866 -1.03521,0.29079 -3.93036,2.60941 -6.43367,5.15248 l -4.55147,4.62377 -3.18942,-3.29478 z"
       id="path3054"
       inkscape:connector-curvature="0"
       transform="scale(0.8,0.8)" />
  </g>
</svg>
