<?xml version="1.0" encoding="UTF-8" standalone="no"?>
<svg
   xmlns:dc="http://purl.org/dc/elements/1.1/"
   xmlns:cc="http://creativecommons.org/ns#"
   xmlns:rdf="http://www.w3.org/1999/02/22-rdf-syntax-ns#"
   xmlns:svg="http://www.w3.org/2000/svg"
   xmlns="http://www.w3.org/2000/svg"
   xmlns:sodipodi="http://sodipodi.sourceforge.net/DTD/sodipodi-0.dtd"
   xmlns:inkscape="http://www.inkscape.org/namespaces/inkscape"
   version="1.0"
   width="333.000000pt"
   height="417.000000pt"
   viewBox="0 0 333.000000 417.000000"
   preserveAspectRatio="xMidYMid meet"
   id="svg2985"
   inkscape:version="0.48.5 r10040"
   sodipodi:docname="logo.svg">
  <defs
     id="defs3005" />
  <sodipodi:namedview
     pagecolor="#ffffff"
     bordercolor="#666666"
     borderopacity="1"
     objecttolerance="10"
     gridtolerance="10"
     guidetolerance="10"
     inkscape:pageopacity="0"
     inkscape:pageshadow="2"
     inkscape:window-width="1600"
     inkscape:window-height="837"
     id="namedview3003"
     showgrid="false"
     inkscape:zoom="1"
     inkscape:cx="208.125"
     inkscape:cy="292.27754"
     inkscape:window-x="-8"
     inkscape:window-y="-8"
     inkscape:window-maximized="1"
     inkscape:current-layer="svg2985" />
  <metadata
     id="metadata2987">
Created by potrace 1.11, written by Peter Selinger 2001-2013
<rdf:RDF>
  <cc:Work
     rdf:about="">
    <dc:format>image/svg+xml</dc:format>
    <dc:type
       rdf:resource="http://purl.org/dc/dcmitype/StillImage" />
    <dc:title></dc:title>
  </cc:Work>
</rdf:RDF>
</metadata>
  <g
     transform="translate(0.000000,417.000000) scale(0.100000,-0.100000)"
     fill="#000000"
     stroke="none"
     id="g2989">
    <path
       d="M2600 4140 c-25 -4 -94 -26 -155 -50 -297 -116 -520 -155 -840 -147 -281 7 -391 25 -785 134 -30 8 -70 22 -88 30 -50 22 -112 21 -142 -1 -24 -19 -88 -96 -266 -321 -48 -60 -105 -130 -128 -155 -93 -102 -152 -173 -168 -201 -22 -42 -13 -69 59 -166 158 -213 232 -451 234 -750 2 -271 -50 -499 -201 -868 -16 -38 -43 -126 -60 -195 -29 -113 -32 -134 -27 -230 6 -123 37 -238 93 -339 21 -36 40 -68 43 -71 3 -3 19 -23 36 -45 62 -84 132 -146 260 -232 84 -56 286 -124 435 -147 58 -9 148 -28 200 -42 209 -54 336 -122 468 -250 92 -89 104 -87 232 26 103 91 138 116 222 155 84 40 210 74 400 109 147 28 213 46 303 83 174 71 303 158 378 255 32 40 62 79 68 86 25 30 99 202 113 262 21 88 21 293 0 372 -8 34 -45 135 -81 227 -98 248 -149 404 -173 526 -80 415 -65 705 48 932 27 55 99 172 111 183 15 13 68 87 75 104 7 19 -23 70 -80 136 -22 25 -167 196 -292 344 -216 254 -219 256 -292 246z m40 -217 c23 -27 52 -59 64 -73 93 -103 190 -214 231 -265 26 -33 66 -78 87 -100 21 -22 38 -44 38 -49 0 -6 -21 -36 -46 -68 -53 -67 -122 -204 -152 -298 -11 -36 -30 -126 -42 -200 -20 -117 -22 -156 -16 -295 3 -88 11 -187 16 -220 6 -33 15 -89 21 -125 24 -139 104 -400 165 -537 14 -32 47 -123 72 -203 43 -135 47 -152 47 -250 0 -75 -6 -122 -19 -165 -37 -117 -157 -268 -270 -339 -160 -102 -259 -135 -620 -207 -169 -33 -235 -57 -318 -115 -76 -53 -170 -132 -191 -160 -10 -13 -24 -24 -30 -24 -7 0 -32 18 -57 40 -160 143 -300 203 -613 264 -349 69 -468 124 -634 296 -35 36 -68 86 -97 145 -64 131 -70 156 -70 290 -1 122 10 170 69 310 7 17 20 53 30 80 9 28 20 59 25 70 18 45 49 133 64 185 14 51 27 102 61 240 43 175 50 449 16 630 -22 117 -72 284 -104 345 -39 74 -121 210 -139 231 -10 11 -18 25 -18 30 0 5 32 48 71 94 39 47 76 92 82 100 7 9 53 64 102 124 130 157 158 192 178 220 10 14 25 26 33 26 9 0 80 -20 157 -44 78 -24 169 -51 202 -59 33 -9 80 -21 105 -27 98 -26 389 -59 525 -60 157 0 515 55 645 100 56 19 217 82 245 95 17 8 33 15 36 15 4 0 25 -21 49 -47z"
       id="path2991" />
    <path
       d="M960 3341 c0 -5 -18 -23 -41 -39 -34 -25 -46 -29 -66 -21 -13 5 -37 9 -52 9 -28 0 -29 -2 -36 -64 -6 -60 -9 -66 -46 -91 -21 -15 -39 -32 -39 -37 0 -6 16 -29 36 -51 34 -41 35 -44 29 -99 l-7 -58 55 0 c53 0 56 -1 95 -47 l41 -48 45 44 46 45 52 -11 c63 -13 68 -8 68 60 0 45 2 49 51 83 l50 37 -42 43 c-39 40 -41 45 -35 82 3 22 8 47 12 55 4 11 -8 16 -56 21 -57 7 -62 10 -93 51 -29 40 -67 60 -67 36z"
       id="path2993" />
    <path
       d="M2305 3283 l-37 -44 -62 2 -61 3 -1 -58 c-2 -54 -4 -60 -43 -94 -23 -19 -41 -39 -41 -44 0 -4 19 -25 41 -45 l41 -37 -6 -63 -7 -63 63 3 c62 3 64 3 108 -39 l46 -43 41 45 42 44 62 -7 62 -6 -7 57 -6 58 47 43 47 43 -45 41 c-44 42 -44 42 -41 101 l4 60 -59 0 c-55 0 -61 2 -104 44 l-46 44 -38 -45z"
       id="path2995" />
    <path
       d="M1613 2384 c-42 -45 -43 -46 -88 -40 -75 12 -82 6 -77 -64 l4 -60 -42 -38 -43 -38 42 -35 c41 -36 41 -36 41 -105 l0 -69 64 3 63 4 37 -43 36 -43 43 42 c39 38 47 41 102 44 l60 3 3 65 c3 62 5 67 44 102 36 32 40 39 28 53 -7 9 -26 23 -41 31 -26 13 -28 19 -31 82 l-3 67 -56 -3 c-55 -3 -57 -2 -100 43 l-44 46 -42 -47z"
       id="path2997" />
    <path
       d="M888 1501 l-45 -48 -49 7 c-27 4 -52 6 -56 3 -5 -2 -8 -32 -8 -67 0 -59 -2 -64 -40 -101 l-40 -39 46 -47 c44 -45 46 -48 42 -100 l-3 -54 54 3 c51 4 55 2 98 -40 l45 -43 37 42 c36 40 41 42 101 45 l64 3 -3 54 c-2 51 -1 55 41 98 l43 44 -35 29 c-19 16 -38 30 -42 30 -4 0 -8 30 -10 68 l-3 67 -55 -3 -55 -3 -39 50 c-21 28 -39 51 -41 51 -1 0 -22 -22 -47 -49z"
       id="path2999" />
    <path
       d="M2344 1503 c-29 -36 -31 -36 -97 -34 l-67 2 0 -68 -1 -68 -44 -34 -45 -33 50 -47 c49 -46 50 -49 50 -105 l0 -57 60 7 59 6 37 -41 c21 -22 43 -41 49 -41 7 0 25 16 39 35 26 34 30 35 92 35 l64 0 0 69 c0 66 1 70 35 98 19 17 35 34 35 39 0 5 -18 25 -41 46 -40 37 -41 39 -37 95 l3 58 -63 0 c-59 0 -64 2 -98 38 -19 20 -39 37 -43 37 -4 0 -21 -16 -37 -37z"
       id="path3001" />
  </g>
  <path
     style="fill:#ffffff"
     d="M 204.09751,515.26348 C 202.73763,514.32354 197.8,510.20546 193.125,506.11221 172.6463,488.18181 157.07561,481.51744 115.84629,473.03634 81.967448,466.06727 66.40158,460.17201 50.154871,448.157 25.538407,429.95226 10.985441,407.80146 6.0149626,380.97246 c -0.6623228,-3.575 -1.2237227,-11.45 -1.2475552,-17.5 -0.037919,-9.62582 0.4199166,-12.72202 3.6648771,-24.78445 2.0395145,-7.58145 6.6599325,-21.49143 10.2675935,-30.91106 11.676481,-30.48737 17.051904,-49.4788 20.024307,-70.74611 2.301128,-16.46438 1.461061,-51.38862 -1.57694,-65.55838 C 32.477057,149.68989 25.855795,134.61927 11.703807,113.5608 5.2867425,104.01206 3.125,99.971937 3.125,97.5277 c 0,-3.773581 2.8486861,-7.841659 16.494645,-23.555242 5.015115,-5.775 15.146988,-17.925 22.515275,-27 C 69.885741,12.793726 72.345552,9.8740521 74.67735,8.3461993 78.132247,6.0824642 85.476827,6.4926886 94.046774,9.4280595 103.27603,12.589256 132.46386,20.259569 145.70635,23.003756 c 16.68783,3.458151 30.89681,4.949211 53.38662,5.602283 40.31914,1.170809 64.34521,-2.748653 103.5496,-16.892431 28.98101,-10.455486 27.76818,-10.5740732 41.39707,4.04767 12.88224,13.820684 56.51507,65.36834 60.23125,71.156961 1.56976,2.445179 2.85114,5.370179 2.8475,6.5 -0.004,1.12982 -2.88755,5.879219 -6.4087,10.554221 -13.20612,17.53365 -21.576,35.08615 -25.7498,54 -2.03384,9.21649 -2.31298,13.12814 -2.28355,32 0.0346,22.20475 1.29066,35.01916 5.48168,55.9252 3.0253,15.09109 7.8658,30.28065 19.57416,61.42403 5.75846,15.31708 11.10355,30.28187 11.87798,33.25509 3.52499,13.53335 2.74554,39.75576 -1.56684,52.71233 -8.37425,25.16048 -24.04972,45.21623 -45.12832,57.7388 -17.46482,10.37566 -31.52018,15.50546 -57.29,20.90922 -48.00282,10.06586 -57.56049,13.95709 -79.1751,32.23466 -15.66236,13.24428 -17.74379,14.27713 -22.35239,11.09169 l 0,0 z m 11.06928,-26.85717 c 6.2085,-6.35881 22.33497,-18.58706 30.02774,-22.76917 7.90919,-4.29978 14.95436,-6.35934 39.93047,-11.67315 35.71097,-7.59772 48.6006,-11.88328 65.49333,-21.77529 14.19226,-8.31068 29.72505,-25.36973 35.91761,-39.44689 4.62972,-10.52446 5.92211,-28.39994 3.05639,-42.27379 -1.69386,-8.20051 -9.09751,-30.51708 -15.25928,-45.99556 -8.99604,-22.59821 -16.39014,-48.7535 -20.35438,-72 -1.8807,-11.02844 -2.22728,-16.94311 -2.28529,-39 -0.0673,-25.59305 -0.0186,-26.2304 3.11351,-40.72029 4.53465,-20.97851 12.01982,-37.8313 24.40565,-54.949038 2.86068,-3.953587 3.84646,-6.121996 3.2573,-7.165085 -1.1164,-1.976549 -43.05889,-50.197109 -51.21597,-58.882118 -3.50412,-3.730909 -6.8537,-6.783471 -7.44351,-6.783471 -0.58981,0 -9.1978,3.108518 -19.12887,6.907817 -22.05631,8.438015 -22.09521,8.44992 -37.55649,11.492528 -29.7159,5.847758 -53.70312,8.01723 -72.89047,6.592421 -33.01989,-2.451982 -46.6138,-5.016862 -85.37637,-16.108696 L 83.665939,26.647824 78.465136,32.560141 C 66.227365,46.472142 26.125,96.471564 26.125,97.817554 c 0,0.809789 2.647905,5.563426 5.884233,10.563626 13.76096,21.26101 20.309225,37.32912 25.773909,63.24392 2.456207,11.6479 2.711403,14.85465 2.7334,34.34736 0.0135,11.96443 -0.528731,25.38642 -1.222581,30.26277 -2.343438,16.46958 -10.915998,48.18631 -18.81171,69.5995 -4.185378,11.35075 -9.233421,25.13773 -11.217875,30.63773 l -3.608098,10 0.0029,17 c 0.0029,16.94706 0.01323,17.02491 3.30332,25 5.478911,13.28071 10.888633,22.04297 18.80357,30.4566 18.511163,19.67748 33.017764,26.42097 77.358882,35.96079 41.42818,8.91312 53.16551,13.79225 74.37455,30.91704 4.88101,3.94106 9.39981,7.16557 10.04179,7.16557 0.64199,0 3.17344,-2.05477 5.62545,-4.56615 l 5e-5,0 z"
     id="path3007"
     inkscape:connector-curvature="0"
     transform="scale(0.8,0.8)" />
  <path
     style="fill:#ffffff"
     d="m 111.4203,165.50962 -5.07161,-5.53716 -6.713338,0 -6.713335,0 0.705173,-7.02181 0.705173,-7.02181 -4.103682,-5.43528 C 87.971657,137.50415 86.125,134.64317 86.125,134.13583 c 0,-0.50735 1.998715,-2.56025 4.441589,-4.562 3.80003,-3.11384 4.531541,-4.3229 5.064336,-8.37046 0.34251,-2.602 0.867836,-6.02891 1.167391,-7.61534 l 0.544645,-2.88443 6.558549,0.61245 c 7.22237,0.67443 11.14275,-0.8829 15.19679,-6.03678 1.91026,-2.4285 2.12283,-2.47384 4.44981,-0.94915 1.34405,0.88065 3.63449,3.16236 5.08987,5.07047 2.70145,3.54178 5.70639,4.92432 13.23585,6.08967 l 4.24883,0.6576 -0.63307,6.81162 -0.63308,6.81163 4.54854,4.86275 4.54853,4.86275 -5.66429,4.50799 c -5.22362,4.15728 -5.68481,4.85652 -5.92801,8.98793 -0.47542,8.07628 -0.92946,8.97993 -4.51193,8.97993 -1.78066,0 -4.7988,-0.44776 -6.70699,-0.99502 -3.35554,-0.96236 -3.65295,-0.81342 -9.05994,4.53716 l -5.59051,5.53217 -5.07161,-5.53715 z"
     id="path3009"
     inkscape:connector-curvature="0"
     transform="scale(0.8,0.8)" />
  <path
     style="fill:#ffffff"
     d="m 288.64023,170.98806 c -4.90096,-5.01904 -9.04473,-6.42978 -16.24414,-5.53027 l -5.5633,0.69509 0.70244,-7.75172 0.70244,-7.75172 -5.08033,-5.14424 -5.08033,-5.14423 5.02399,-5.07704 5.024,-5.07704 0,-7.10446 0,-7.10446 7.61324,0.64355 7.61324,0.64355 4.73715,-5.37299 4.73714,-5.37299 4.89961,4.3272 c 5.97903,5.28051 8.0025,6.10617 14.96472,6.10617 l 5.4349,0 0,7.21855 0,7.21856 5.07278,5.13659 5.07278,5.13658 -5.64456,5.03092 -5.64456,5.03092 0.70439,7.14839 0.70438,7.1484 -7.96372,-0.66415 -7.96372,-0.66415 -4.32542,5.1297 c -2.37898,2.82133 -4.61366,5.12969 -4.96594,5.12969 -0.35228,0 -2.39131,-1.79298 -4.53118,-3.9844 z"
     id="path3011"
     inkscape:connector-curvature="0"
     transform="scale(0.8,0.8)" />
  <path
     style="fill:#ffffff"
     d="m 201.64386,282.84873 -3.98115,-5.04351 -7.76885,0.6877 -7.76886,0.6877 0,-6.53898 c 0,-8.43817 -1.12999,-11.37088 -6.06378,-15.73762 l -4.03183,-3.56845 5.13218,-4.80055 5.13218,-4.80056 -0.67133,-5.78426 c -0.42614,-3.67163 -0.257,-6.55846 0.46311,-7.90398 1.04028,-1.94379 1.67593,-2.06425 7.65828,-1.45134 l 6.52384,0.66838 5.42867,-5.36124 5.42868,-5.36124 5.28144,5.21584 5.28145,5.21584 6.58771,0 6.58771,0 0.61984,3.75 c 0.34091,2.0625 0.62479,5.4375 0.63084,7.5 0.0112,3.81057 1.1289,5.38664 6.41574,9.04668 1.4274,0.98818 2.59527,2.15665 2.59527,2.5966 0,0.43995 -1.51314,2.35795 -3.36254,4.26221 -4.36886,4.49847 -5.635,6.97064 -5.64847,11.02877 -0.006,1.82365 -0.28993,5.00324 -0.63084,7.06574 l -0.61984,3.75 -5.46802,0 c -6.47582,0 -10.73255,1.81824 -15.30772,6.53861 -1.8452,1.90376 -3.60413,3.44334 -3.90874,3.42128 -0.30461,-0.0221 -2.34534,-2.30969 -4.53497,-5.08362 l 0,0 z"
     id="path3013"
     inkscape:connector-curvature="0"
     transform="scale(0.8,0.8)" />
  <path
     style="fill:#ffffff"
     d="m 293.91994,392.05311 -5.27102,-5.27102 -7.26196,0.68051 -7.26196,0.6805 0,-6.65956 0,-6.65956 -5.5,-5.76617 c -3.025,-3.1714 -5.5,-6.02467 -5.5,-6.3406 0,-0.31593 2.25,-2.22607 5,-4.24475 l 5,-3.67034 0,-8.41483 0,-8.41483 8.15361,0 8.15361,0 3.69278,-4 c 2.03103,-2.2 4.12771,-4 4.6593,-4 0.53158,0 2.28821,1.40542 3.90361,3.12316 3.92822,4.17708 8.23919,5.87684 14.90497,5.87684 l 5.53212,0 0,6.79179 c 0,6.72858 0.0419,6.8329 4.5,11.20821 5.21525,5.11838 5.54969,7.03166 1.75,10.01141 -4.19648,3.29091 -5.17597,5.851 -5.21457,13.62929 l -0.0354,7.1407 -7.47598,0.37752 c -7.29671,0.36846 -7.58368,0.48321 -11.96702,4.78514 l -4.49104,4.40762 -5.27102,-5.27103 0,0 z"
     id="path3015"
     inkscape:connector-curvature="0"
     transform="scale(0.8,0.8)" />
  <path
     style="fill:#ffffff"
     d="m 112.07117,394.35322 c -4.73743,-4.97536 -8.57543,-6.44888 -14.858748,-5.70471 l -5.138344,0.60856 0.642401,-5.46583 c 0.764194,-6.5021 -0.490028,-9.44357 -6.513669,-15.27623 l -4.087032,-3.95745 4.017274,-4.09331 C 90.679266,355.832 92.125,351.88146 92.125,344.09096 l 0,-5.39469 6.674765,0.68385 6.674765,0.68385 5.81354,-5.75288 c 6.54549,-6.47719 5.24611,-6.7314 11.97642,2.34308 l 3.10147,4.18172 6.73877,-0.56495 6.73877,-0.56496 0.70663,8.10063 0.70663,8.10062 4.79399,3.81704 4.794,3.81703 -4.85988,5.28533 c -4.82159,5.2437 -4.85987,5.33906 -4.85987,12.10628 l 0,6.82095 -7.48057,0.37775 c -7.39092,0.37322 -7.53813,0.43445 -12.28435,5.1093 -2.64208,2.60235 -5.03755,4.73155 -5.32326,4.73155 -0.28572,0 -2.07026,-1.62866 -3.96565,-3.61924 z"
     id="path3017"
     inkscape:connector-curvature="0"
     transform="scale(0.8,0.8)" />
</svg>
