<?xml version="1.0" standalone="no"?>
<!DOCTYPE svg PUBLIC "-//W3C//DTD SVG 20010904//EN"
 "http://www.w3.org/TR/2001/REC-SVG-20010904/DTD/svg10.dtd">
<svg version="1.0" xmlns="http://www.w3.org/2000/svg"
 width="3600.000000pt" height="3600.000000pt" viewBox="0 0 3600.000000 3600.000000"
 preserveAspectRatio="xMidYMid meet">
<metadata>
Created by potrace 1.11, written by Peter Selinger 2001-2013
</metadata>
<g transform="translate(0.000000,3600.000000) scale(0.100000,-0.100000)"
fill="#000000" stroke="none">
<path d="M1150 35287 c8 -8 101 -88 205 -178 1013 -873 2065 -1890 2920 -2820
2180 -2372 3748 -4805 4823 -7484 542 -1352 967 -2774 1342 -4495 140 -645
234 -1115 461 -2320 332 -1761 462 -2395 654 -3168 493 -1994 1129 -3491 2048
-4822 433 -627 872 -1146 1497 -1770 566 -566 1049 -1000 1625 -1461 2037
-1631 4181 -2579 6305 -2788 361 -36 546 -44 940 -44 552 -1 971 33 1510 119
1824 293 3658 1165 5198 2471 72 62 135 113 138 113 15 0 309 -653 467 -1037
408 -992 721 -2007 891 -2893 127 -661 197 -1369 184 -1858 l-4 -153 51 6
c544 67 1003 268 1285 562 153 159 210 269 218 420 4 82 2 97 -21 146 -50 109
-140 178 -319 243 -122 44 -188 86 -275 177 -202 212 -382 603 -627 1362 -30
94 -135 429 -235 745 -400 1276 -642 1936 -1014 2760 l-25 55 187 196 c313
329 502 544 767 875 976 1220 1701 2610 2113 4054 378 1325 493 2705 341 4085
-312 2827 -1741 5686 -4219 8445 -312 348 -952 977 -1361 1341 -1797 1594
-4141 3022 -6950 4234 -5039 2174 -11729 3744 -20560 4825 -272 33 -513 63
-535 66 -35 5 -38 4 -25 -9z m3156 -1476 c2425 -1131 5008 -2643 7344 -4300
502 -356 1526 -1112 1665 -1229 l30 -25 -28 7 c-77 19 -303 47 -448 56 -374
22 -647 -23 -1209 -204 -542 -173 -768 -225 -1139 -261 -180 -18 -622 -20
-822 -5 -259 20 -771 93 -984 140 l-50 11 -69 122 c-694 1218 -1756 2716
-2811 3961 -450 532 -826 946 -1404 1544 -139 144 -251 262 -248 262 2 0 80
-35 173 -79z m734 -27 c2761 -404 5283 -860 7545 -1365 694 -155 869 -198 883
-217 26 -33 194 -375 243 -495 105 -257 175 -516 200 -747 16 -147 6 -415 -21
-570 -12 -69 -55 -258 -95 -420 -100 -404 -116 -502 -122 -740 -6 -215 8 -356
52 -554 14 -60 23 -111 22 -113 -2 -2 -58 36 -123 83 -1697 1239 -3491 2378
-5294 3362 -1114 607 -2416 1247 -3511 1725 -108 47 -211 93 -230 101 l-34 16
55 -5 c30 -3 224 -31 430 -61z m8940 -1694 c1197 -298 2515 -669 3610 -1015
827 -261 2325 -780 2369 -820 18 -17 120 -299 182 -503 135 -448 222 -891 266
-1362 12 -136 17 -288 17 -570 1 -530 -19 -776 -143 -1775 -124 -996 -135
-1140 -136 -1730 0 -301 5 -510 13 -605 19 -212 60 -526 88 -675 13 -71 24
-135 24 -142 0 -6 -129 119 -287 279 -407 411 -1124 1103 -1593 1539 -1197
1111 -2533 2241 -3788 3204 -119 91 -197 158 -203 173 -21 55 -69 242 -88 342
-53 285 -54 658 -2 1130 44 403 54 570 48 780 -13 411 -95 737 -284 1140 -85
181 -255 465 -373 625 -45 61 -48 69 -22 61 9 -3 145 -37 302 -76z m6475
-2018 c1121 -435 2086 -860 3075 -1354 1112 -555 1962 -1040 2902 -1656 l186
-123 15 -67 c202 -895 229 -1823 82 -2779 -119 -770 -307 -1445 -782 -2803
-397 -1135 -479 -1382 -608 -1833 -192 -673 -310 -1274 -358 -1826 l-12 -144
-209 269 c-931 1195 -1953 2411 -2961 3519 -277 305 -728 790 -848 911 l-99
102 -34 198 c-86 516 -117 918 -118 1509 -1 587 14 811 119 1865 65 651 81
843 96 1180 47 1044 -134 1926 -577 2812 -47 95 -106 208 -130 250 -24 43 -44
80 -44 82 0 6 37 -8 305 -112z m-6962 -2292 c171 -25 320 -58 480 -106 149
-45 198 -66 250 -108 1833 -1476 3620 -3115 5321 -4880 131 -136 236 -249 234
-251 -2 -2 -80 16 -173 41 -825 216 -1615 258 -2475 133 -372 -54 -586 -97
-1378 -280 -979 -225 -1396 -299 -1982 -351 -191 -17 -908 -17 -1090 0 -460
43 -878 112 -1265 208 -181 45 -429 114 -443 123 -7 4 -39 106 -72 226 -413
1501 -901 2817 -1530 4125 -163 340 -408 814 -562 1087 l-29 52 58 -20 c135
-47 429 -133 597 -174 688 -169 1287 -195 1948 -85 97 16 358 70 580 119 502
111 673 141 948 165 108 10 447 -5 583 -24z m13497 -1100 c212 -149 676 -504
945 -724 1080 -884 1934 -1755 2837 -2892 152 -192 380 -491 482 -632 270
-375 685 -1021 917 -1427 l74 -130 0 -360 c-1 -361 -10 -535 -45 -847 -98
-864 -344 -1761 -750 -2738 -259 -622 -365 -842 -1242 -2580 -448 -889 -673
-1391 -861 -1925 -106 -298 -215 -685 -258 -913 -9 -50 -14 -61 -24 -50 -6 7
-92 146 -190 308 -956 1579 -2115 3302 -3229 4800 l-167 225 6 160 c20 522 65
898 175 1445 122 608 248 1060 671 2402 272 866 388 1266 508 1758 384 1568
382 2858 -4 4100 -25 80 -45 149 -45 153 0 5 21 -7 48 -26 26 -18 94 -67 152
-107z m-15608 -4636 c672 -265 1309 -415 2023 -475 193 -17 761 -17 980 -1
503 38 859 91 1735 262 785 153 941 181 1256 224 887 121 1626 86 2364 -114
253 -68 701 -229 754 -271 29 -23 554 -602 856 -944 879 -995 1747 -2045 2602
-3145 284 -366 578 -754 574 -758 -2 -1 -57 10 -122 27 -346 86 -608 119
-1009 128 -299 6 -486 -3 -760 -38 -565 -71 -1102 -202 -1785 -435 -472 -161
-852 -308 -1795 -699 -1229 -509 -1738 -704 -2287 -879 -761 -242 -1334 -365
-2043 -438 -167 -17 -910 -17 -1075 0 -324 34 -627 86 -889 153 -85 21 -156
41 -158 43 -9 9 -156 582 -203 791 -124 554 -231 1090 -480 2410 -259 1376
-364 1897 -526 2627 -90 407 -274 1183 -349 1475 -30 117 -55 214 -55 217 0 3
46 -16 103 -41 56 -25 186 -78 289 -119z m21205 -1814 c429 -852 758 -1702
987 -2550 127 -473 233 -1190 277 -1890 15 -239 15 -941 0 -1180 -40 -637
-139 -1323 -247 -1725 -323 -1194 -871 -2377 -1592 -3435 -168 -247 -451 -608
-699 -893 -152 -175 -384 -427 -393 -427 -5 0 -61 102 -125 228 -340 659 -750
1410 -1171 2144 l-153 267 40 163 c96 395 262 901 448 1365 189 473 362 864
816 1848 455 986 636 1395 834 1888 473 1176 725 2130 823 3113 35 353 30
1237 -9 1379 -13 50 25 -19 164 -295z m-8623 -3875 c237 -21 448 -56 671 -111
121 -31 405 -122 423 -137 13 -11 348 -472 603 -832 639 -900 1328 -1929 1949
-2910 315 -498 895 -1444 888 -1450 -2 -1 -72 15 -156 36 -184 47 -376 82
-572 106 -227 28 -810 25 -1060 -6 -986 -119 -1870 -400 -3720 -1184 -1080
-457 -1616 -672 -2160 -865 -1620 -575 -2916 -754 -4135 -572 -71 11 -204 34
-295 52 l-165 31 -228 220 c-578 557 -1139 1190 -1475 1664 -668 942 -1234
2098 -1659 3383 -87 265 -255 821 -249 827 1 1 62 -23 136 -53 457 -188 980
-315 1510 -369 218 -22 716 -31 947 -16 743 48 1456 192 2383 483 429 134 850
284 1760 628 338 128 719 270 845 317 1300 479 2153 698 2965 762 181 14 612
12 794 -4z m3710 -5935 c452 -31 879 -133 1224 -291 l87 -40 64 -112 c392
-684 779 -1392 1155 -2113 80 -154 146 -285 146 -291 0 -29 -618 -548 -915
-768 -594 -440 -1435 -908 -2205 -1228 -483 -200 -1129 -408 -1464 -472 -1182
-222 -2329 -229 -3491 -20 -337 61 -511 108 -980 262 -979 322 -1978 816
-2945 1457 -453 300 -868 615 -1350 1025 -191 163 -562 493 -558 497 2 2 46
-10 98 -27 210 -66 536 -139 795 -178 506 -77 1153 -85 1710 -20 764 88 1573
284 2560 619 440 150 761 269 1990 738 925 353 1483 544 2024 692 796 218
1486 308 2055 270z"/>
</g>
</svg>
