<?xml version="1.0" encoding="UTF-8" standalone="no"?>
<svg
   xmlns:dc="http://purl.org/dc/elements/1.1/"
   xmlns:cc="http://creativecommons.org/ns#"
   xmlns:rdf="http://www.w3.org/1999/02/22-rdf-syntax-ns#"
   xmlns:svg="http://www.w3.org/2000/svg"
   xmlns="http://www.w3.org/2000/svg"
   xmlns:sodipodi="http://sodipodi.sourceforge.net/DTD/sodipodi-0.dtd"
   xmlns:inkscape="http://www.inkscape.org/namespaces/inkscape"
   version="1.0"
   width="3600.000000pt"
   height="3600.000000pt"
   viewBox="0 0 3600.000000 3600.000000"
   preserveAspectRatio="xMidYMid meet"
   id="svg3024"
   inkscape:version="0.48.5 r10040"
   sodipodi:docname="arbol.svg">
  <defs
     id="defs3034" />
  <sodipodi:namedview
     pagecolor="#ffffff"
     bordercolor="#666666"
     borderopacity="1"
     objecttolerance="10"
     gridtolerance="10"
     guidetolerance="10"
     inkscape:pageopacity="0"
     inkscape:pageshadow="2"
     inkscape:window-width="1600"
     inkscape:window-height="837"
     id="namedview3032"
     showgrid="false"
     inkscape:snap-global="false"
     inkscape:zoom="0.14444444"
     inkscape:cx="1453.8462"
     inkscape:cy="2250"
     inkscape:window-x="-8"
     inkscape:window-y="-8"
     inkscape:window-maximized="1"
     inkscape:current-layer="svg3024" />
  <metadata
     id="metadata3026">
Created by potrace 1.11, written by Peter Selinger 2001-2013
<rdf:RDF>
  <cc:Work
     rdf:about="">
    <dc:format>image/svg+xml</dc:format>
    <dc:type
       rdf:resource="http://purl.org/dc/dcmitype/StillImage" />
    <dc:title></dc:title>
  </cc:Work>
</rdf:RDF>
</metadata>
  <g
     inkscape:groupmode="layer"
     id="layer2"
     inkscape:label="Capa"
     style="display:inline">
    <path
       style="fill:#ffffff"
       d="m 4047.0796,4348.5636 c -10.3621,-153.9257 -47.5216,-322.5772 -104.9448,-476.3009 -33.0879,-88.5771 -82.4174,-198.3825 -90.3031,-201.0111 -3.4125,-1.1375 -26.0018,13.9506 -50.1985,33.5292 -162.5262,131.506 -374.2258,233.5555 -572.9228,276.1765 -88.3485,18.9511 -286.5163,26.2415 -378.4447,13.9228 -338.3855,-45.3447 -666.7125,-228.3486 -971.0001,-541.2186 -121.996,-125.4369 -182.6654,-205.2118 -251.9971,-331.3538 C 1514.7969,2917.6766 1465.2903,2751.7519 1363.2632,2237.4743 1259.9399,1716.6637 1205.9873,1532.2913 1073.175,1246.1538 898.66011,870.17068 611.12428,500.09024 225.74178,155.44296 187.33854,121.09898 168.11683,99.60758 174.65087,98.319273 180.41212,97.183334 281.32832,109.01471 398.90909,124.61122 1966.0974,332.491 3007.7662,682.25061 3617.3077,1205.2481 c 77.5759,66.5616 213.7631,205.3569 277.8914,283.2134 247.2428,300.1712 389.755,591.9842 442.9126,906.9231 16.6932,98.9013 16.8121,308.21 0.2298,405 -49.0573,286.3507 -165.337,520.1498 -375.7933,755.5936 l -42.4515,47.4918 32.7702,79.7613 c 18.0237,43.8687 58.1103,156.0207 89.0814,249.2266 87.1159,262.1704 95.3851,279.4313 147.4412,307.7637 43.0863,23.4506 50.9158,37.5122 38.0422,68.3231 -15.9339,38.135 -78.6693,77.793 -147.5412,93.2674 l -28.791,6.469 -4.0202,-59.7175 3e-4,0 z m -886.695,-474.5202 c 197.3236,-30.2579 404.9941,-125.6999 573.6908,-263.6588 32.5923,-26.6538 59.374,-52.8229 59.5148,-58.1533 0.1405,-5.3305 -37.506,-79.0418 -83.6594,-163.8027 -95.8855,-176.0943 -85.2999,-166.3768 -204.0352,-187.3033 -143.2754,-25.2515 -253.6598,0.8078 -702.5737,165.8619 -265.8764,97.7558 -355.608,117.9571 -522.1681,117.5555 -94.7972,-0.2284 -128.1845,-2.9949 -171.6281,-14.2206 -34.5326,-8.9231 -53.0076,-11.1421 -51.3555,-6.168 1.4192,4.273 35.0364,35.1027 74.705,68.5107 213.4441,179.7572 474.7694,308.5386 691.7402,340.8901 80.0456,11.9351 259.4192,12.1962 335.7692,0.4887 l 0,-2e-4 z m 812.9416,-512.8896 c 85.6269,-112.0998 163.1889,-261.3345 207.892,-399.9992 26.9346,-83.5483 34.1045,-116.9455 45.6625,-212.6931 31.2161,-258.5999 -18.2103,-519.6674 -144.833,-765 l -28.5855,-55.3846 -4.3633,117.6923 c -7.8389,211.4364 -32.0252,291.1581 -212.1357,699.2308 -98.5692,223.3262 -139.9596,329.4737 -150.6102,386.2463 -4.3107,22.9777 1.9621,37.5748 69.6996,162.1942 40.9402,75.3192 82.3508,150.6724 92.0236,167.4513 l 17.587,30.5072 30.0348,-33.9688 c 16.5191,-18.6827 51.4518,-62.0071 77.6282,-96.2764 l 0,0 z m -1577.9416,76.3196 c 92.4632,-19.5286 215.1067,-59.7593 353.0769,-115.82 347.1883,-141.0708 437.6706,-173.0595 543.0023,-191.9705 53.1775,-9.5473 180.3576,-9.478 225.1245,0.1226 19.2291,4.1238 38.005,6.4604 41.7242,5.1923 13.2773,-4.5272 -263.009,-434.5494 -383.1456,-596.3421 -43.9237,-59.1538 -50.8308,-63.2715 -132.4746,-78.9754 -118.1373,-22.7234 -283.6125,2.5445 -477.6923,72.9429 -321.486,116.6124 -394.4989,141.5761 -469.1604,160.4098 -46.5789,11.7497 -123.6263,24.9091 -171.2242,29.2443 -74.4772,6.7833 -97.3372,6.2229 -164.0183,-4.0204 -42.614,-6.5462 -94.0178,-17.9353 -114.2308,-25.3092 l -36.7509,-13.4071 34.6154,5.0372 c 19.0384,2.7706 81.3461,4.9559 138.4615,4.8563 165.1198,-0.288 262.7322,-26.3344 595.3846,-158.8709 230.909,-91.9996 300.5543,-115.2627 406.6456,-135.8285 94.1022,-18.2416 197.194,-16.347 270.0852,4.9637 6.6635,1.9481 12.1154,0.657 12.1154,-2.8686 0,-13.1072 -196.4594,-259.1427 -337.7159,-422.9379 -164.9652,-191.2868 -159.9642,-186.7248 -229.0541,-208.943 -135.3422,-43.5235 -231.9372,-43.3113 -473.7936,1.0415 -276.5353,50.7123 -407.4369,45.7819 -592.0107,-22.2981 -31.6659,-11.68 -58.9577,-19.8529 -60.6484,-18.1622 -1.6907,1.6907 8.125,49.513 21.8126,106.2718 13.6877,56.7588 55.5902,255.8517 93.1168,442.4286 37.5267,186.5769 73.3453,356.3654 79.597,377.3077 71.9575,241.0483 130.1745,376.4166 220.3246,512.3077 44.1747,66.5883 74.2979,103.3462 162.6094,198.4251 l 71.7714,77.2712 56.4185,7.7334 c 104.8113,14.3668 218.2587,10.848 316.0339,-9.8025 l 0,3e-4 z m 1251.7521,-405.1053 c 16.2498,-70.3982 60.9862,-175.5569 170.8473,-401.5989 167.556,-344.7506 202.6974,-453.0568 214.7664,-661.9122 l 4.4445,-76.9123 -29.1226,-47.7031 c -117.653,-192.7167 -262.5971,-368.3215 -421.9185,-511.1684 -86.1239,-77.2185 -234.3774,-194.0803 -239.5951,-188.8626 -1.5055,1.5055 1.9652,18.049 7.7129,36.7633 31.1704,101.4914 39.1291,248.2633 20.328,374.8821 -13.2559,89.2739 -31.5634,160.4767 -93.9249,365.2978 -70.7408,232.3427 -95.6495,347.407 -95.9351,443.167 l -0.1239,41.6286 77.058,107.2176 c 92.4589,128.6463 219.2616,317.3835 292.9685,436.0638 29.5598,47.5961 58.1606,93.548 63.5574,102.1154 14.5031,23.0237 20.0876,19.3612 28.9373,-18.9781 l -2e-4,0 z m -518.3449,-770.2527 c 13.9383,-98.5621 39.913,-194.0798 111.3039,-409.3018 90.5646,-273.0246 103.568,-329.706 108.6469,-473.5872 4.3944,-124.4922 -6.037,-228.9904 -25.0211,-250.6528 -21.3458,-24.3572 -243.1958,-151.54412 -396.2502,-227.17092 -150.7645,-74.49521 -382.8273,-174.4796 -404.9656,-174.4796 -9.9065,0 -9.9668,1.60921 -0.5968,15.9098 19.4142,29.62984 51.8792,113.21271 66.6288,171.53964 21.6714,85.69838 24.6836,170.73558 11.1397,314.47368 -17.5147,185.8792 -20.4093,332.5336 -8.2293,416.9428 l 10.2146,70.789 69.1313,74.5956 c 109.6861,118.3562 229.9673,258.025 342.9675,398.2495 57.5333,71.3942 105.1341,129.8077 105.7796,129.8077 0.6452,0 4.8083,-25.702 9.2507,-57.1154 l 0,0 z M 1782.6923,1748.22 c 38.0769,-5.4933 125.7562,-22.467 194.8429,-37.7193 209.1137,-46.1661 303.4888,-51.4653 433.9628,-24.367 29.8047,6.1902 56.2855,9.1118 58.8462,6.4926 10.0583,-10.2886 -368.7984,-371.536 -552.6519,-526.9647 -122.9048,-103.9031 -144.6044,-119.5089 -181.3473,-130.4203 -57.6876,-17.1314 -148.3059,-14.3977 -244.4219,7.3735 -114.7107,25.983 -219.8455,26.0344 -318.3028,0.1557 -37.9896,-9.9853 -71.3522,-18.1551 -74.1392,-18.1551 -2.787,0 21.2528,53.5176 53.4217,118.9279 72.6416,147.7053 129.7521,291.5694 177.9645,448.3017 l 37.1259,120.6912 27.3496,9.0592 c 51.7354,17.1366 179.7698,35.7487 248.888,36.1802 38.0769,0.2375 100.3846,-4.0623 138.4615,-9.5556 l 0,0 z m 744.0965,-184.7005 c -9.8638,-80.5221 -6.6805,-157.3796 14.0195,-338.4771 23.2878,-203.7362 16.8012,-325.25729 -24.3078,-455.39043 -15.7084,-49.7258 -19.7199,-56.09998 -39.8678,-63.34977 -106.6649,-38.3811 -288.8272,-97.80216 -403.1712,-131.51381 -145.0816,-42.77391 -348.1985,-97.09608 -363.0535,-97.09608 -5.7188,0 -3.6288,7.69451 6.1112,22.5 32.3212,49.13024 57.4131,106.32816 67.2193,153.22838 8.5965,41.1144 9.0227,64.85509 2.5746,143.39964 -5.4417,66.28479 -5.5997,107.24192 -0.5338,138.46154 3.9563,24.38342 7.2169,46.55873 7.2457,49.27839 0.028,2.71973 47.5619,42.93884 105.6292,89.37584 164.7881,131.7825 320.929,268.6884 482.8846,423.3979 81.8654,78.2026 149.9939,141.0602 151.3967,139.6835 1.4027,-1.3767 -1.3631,-34.4508 -6.1463,-73.498 l -4e-4,0 z M 1346.9977,1017.0248 c 22.5936,-4.1749 80.0215,-18.42468 127.6177,-31.66631 76.8871,-21.39057 92.5821,-23.60942 140.7286,-19.89498 31.6829,2.44426 52.5834,1.58081 50.3216,-2.07893 -2.1278,-3.44278 -54.5519,-43.49756 -116.498,-89.0107 C 1347.0279,725.85753 1122.3795,581.16467 905.16621,459.58155 782.00832,390.64506 531.27122,263.07692 518.93342,263.07692 c -4.04738,0 33.5901,44.39423 83.63884,98.65385 162.95354,176.66373 322.49052,384.97364 427.97074,558.80806 27.8023,45.819 54.1981,83.54137 58.6571,83.82737 4.4592,0.2859 33.0307,4.5864 63.4922,9.5564 70.9377,11.574 142.2922,12.7132 194.3054,3.1022 z m 372.0301,-101.44788 c -8.9382,-33.48436 -4.5266,-99.97414 11.8284,-178.26923 14.0802,-67.40552 14.995,-81.5016 7.963,-122.70585 -4.3695,-25.6036 -17.6522,-68.26263 -29.517,-94.79783 l -21.5725,-48.24583 -87.5187,-20.72265 C 1397.651,402.87345 1055.9807,339.08052 744.23077,291.01631 592.09383,267.56052 556.86318,263.77461 568.26923,272.10738 c 1.58654,1.15905 55.84615,26.42454 120.57692,56.14552 332.45975,152.64809 691.61035,362.14376 972.69235,567.37982 28.5577,20.85182 54.3189,38.15321 57.2472,38.44751 2.9284,0.29423 3.0373,-8.03215 0.2423,-18.50331 l -2e-4,0 z"
       id="path3037"
       inkscape:connector-curvature="0"
       transform="scale(0.8,0.8)" />
  </g>
</svg>
