<?xml version="1.0" standalone="no"?>
<!DOCTYPE svg PUBLIC "-//W3C//DTD SVG 20010904//EN"
 "http://www.w3.org/TR/2001/REC-SVG-20010904/DTD/svg10.dtd">
<svg version="1.0" xmlns="http://www.w3.org/2000/svg"
 width="250.000000pt" height="250.000000pt" viewBox="0 0 250.000000 250.000000"
 preserveAspectRatio="xMidYMid meet">
<metadata>
Created by potrace 1.11, written by Peter Selinger 2001-2013
</metadata>
<g transform="translate(0.000000,250.000000) scale(0.100000,-0.100000)"
fill="#000000" stroke="none">
<path d="M1101 2320 c-21 -9 -23 -14 -17 -63 3 -28 11 -115 16 -192 6 -77 19
-252 30 -390 36 -458 70 -910 70 -937 0 -18 -5 -28 -14 -28 -18 0 -18 -3 -71
385 -36 269 -81 591 -130 953 -6 43 -7 43 -38 37 -36 -8 -174 -60 -196 -74
-17 -11 -23 12 203 -790 80 -283 143 -518 140 -523 -22 -34 -46 25 -251 612
-118 338 -218 619 -223 623 -11 12 -220 -141 -220 -162 0 -3 61 -123 136 -266
367 -701 443 -849 438 -854 -13 -13 -47 34 -255 359 -122 190 -245 381 -274
425 -28 44 -71 110 -94 148 -24 37 -46 67 -51 67 -20 0 -137 -192 -146 -240
-4 -21 46 -83 351 -429 195 -223 355 -411 355 -417 0 -30 -23 -21 -82 34 -35
32 -103 94 -153 137 -49 43 -130 115 -180 161 -177 161 -344 304 -354 304 -6
0 -13 -10 -16 -22 -18 -82 -22 -112 -21 -169 l1 -64 175 -107 c96 -59 218
-134 270 -166 345 -212 320 -194 320 -230 0 -38 11 -33 -212 -101 -88 -27
-164 -53 -170 -59 -13 -13 79 -142 102 -142 8 0 65 16 125 35 269 87 271 87
303 71 162 -84 406 -88 559 -10 l48 24 70 -20 c39 -12 75 -22 80 -24 6 -2 12
-4 15 -4 3 0 19 -6 35 -12 41 -16 187 -60 202 -60 16 0 115 128 108 140 -3 5
-38 19 -78 31 -102 29 -225 68 -273 86 -37 13 -42 18 -40 46 1 35 -5 31 351
247 94 57 228 139 298 183 l128 79 -6 56 c-11 104 -27 192 -35 197 -4 3 -94
-73 -200 -168 -567 -506 -554 -496 -569 -482 -11 11 9 38 121 167 75 84 155
176 179 203 24 28 127 144 228 259 l184 208 -32 67 c-39 81 -112 191 -126 191
-5 0 -97 -137 -203 -303 -407 -635 -447 -697 -459 -697 -7 0 -13 3 -13 6 0 8
179 355 399 774 94 178 171 329 171 336 0 29 -187 171 -212 161 -7 -3 -110
-282 -228 -621 -175 -503 -218 -616 -232 -616 -29 0 -46 -65 207 829 107 381
134 486 123 492 -29 19 -181 69 -207 69 -27 0 -29 -2 -35 -62 -4 -35 -27 -205
-51 -378 -25 -173 -63 -450 -85 -615 -23 -165 -46 -304 -51 -310 -22 -22 -27
13 -19 120 5 61 19 234 30 385 12 151 25 327 30 390 43 545 53 701 46 707 -12
12 -298 14 -325 3z"/>
</g>
</svg>
