<?xml version="1.0" encoding="UTF-8" standalone="no"?>
<svg
   xmlns:dc="http://purl.org/dc/elements/1.1/"
   xmlns:cc="http://creativecommons.org/ns#"
   xmlns:rdf="http://www.w3.org/1999/02/22-rdf-syntax-ns#"
   xmlns:svg="http://www.w3.org/2000/svg"
   xmlns="http://www.w3.org/2000/svg"
   xmlns:sodipodi="http://sodipodi.sourceforge.net/DTD/sodipodi-0.dtd"
   xmlns:inkscape="http://www.inkscape.org/namespaces/inkscape"
   version="1.0"
   width="250.000000pt"
   height="250.000000pt"
   viewBox="0 0 250.000000 250.000000"
   preserveAspectRatio="xMidYMid meet"
   id="svg2997"
   inkscape:version="0.48.5 r10040"
   sodipodi:docname="concha.svg">
  <defs
     id="defs3007" />
  <sodipodi:namedview
     pagecolor="#ffffff"
     bordercolor="#666666"
     borderopacity="1"
     objecttolerance="10"
     gridtolerance="10"
     guidetolerance="10"
     inkscape:pageopacity="0"
     inkscape:pageshadow="2"
     inkscape:window-width="1600"
     inkscape:window-height="837"
     id="namedview3005"
     showgrid="false"
     inkscape:zoom="2.08"
     inkscape:cx="100.96154"
     inkscape:cy="156.25"
     inkscape:window-x="-8"
     inkscape:window-y="-8"
     inkscape:window-maximized="1"
     inkscape:current-layer="svg2997" />
  <metadata
     id="metadata2999">
Created by potrace 1.11, written by Peter Selinger 2001-2013
<rdf:RDF>
  <cc:Work
     rdf:about="">
    <dc:format>image/svg+xml</dc:format>
    <dc:type
       rdf:resource="http://purl.org/dc/dcmitype/StillImage" />
    <dc:title></dc:title>
  </cc:Work>
</rdf:RDF>
</metadata>
  <g
     inkscape:groupmode="layer"
     id="layer1"
     inkscape:label="Capa"
     style="display:inline">
    <path
       style="fill:#ffffff"
       d="m 65.568793,293.37649 c -3.376726,-2.95009 -9.570562,-11.70751 -10.486336,-14.82656 -0.252842,-0.86115 0.0538,-1.16737 1.996918,-1.99421 2.728514,-1.16104 16.338784,-5.62991 29.640346,-9.73228 15.008529,-4.62882 16.164899,-5.32996 16.164899,-9.80129 0,-4.22356 1.97663,-2.86511 -55.288466,-37.99746 C 26.574519,206.12783 8.8882212,195.26823 8.2932692,194.89223 c -1.0517494,-0.66468 -1.0817307,-0.90751 -1.0817307,-8.76154 0,-11.03287 2.1367066,-23.14992 4.0822305,-23.14992 1.706138,0 16.162682,12.60863 78.781096,68.71087 5.779159,5.17777 11.509575,10.12667 12.734255,10.99756 4.18665,2.97717 6.43513,1.03582 3.37394,-2.91309 -4.11144,-5.30371 -27.752925,-32.82203 -52.346016,-60.92996 -24.889695,-28.44691 -33.323873,-38.69841 -33.976055,-41.29691 -0.174234,-0.6942 0.05699,-2.2457 0.541741,-3.635 1.842231,-5.27988 12.773527,-23.38216 15.792296,-26.15211 0.678586,-0.62265 1.45242,-0.99698 1.719629,-0.83184 0.770782,0.47637 4.451138,5.90277 11.246742,16.58246 13.887954,21.82571 54.745923,85.02519 60.960633,94.29445 3.64128,5.43098 7.51791,10.79923 8.61475,11.92945 2.02779,2.08949 3.24424,2.38981 3.00686,0.74232 -0.24833,-1.72349 -9.66372,-20.24116 -34.930895,-68.70012 C 72.88749,135.07212 58.964721,108.20033 55.873255,102.06376 l -5.620838,-11.157385 1.676676,-1.740423 c 4.541258,-4.713914 23.119705,-18.012106 25.16409,-18.012106 0.579173,0 3.573471,8.292524 26.734097,74.038464 20.02444,56.84324 24.65634,69.47606 27.83504,75.91598 2.47168,5.00751 3.44692,6.00775 4.6675,4.78716 0.70742,-0.70741 0.61043,-1.41989 -1.17688,-8.6457 C 132.91468,208.20083 123.31222,173.32323 111.47559,131.25 97.652072,82.114423 93.269231,65.653754 93.269231,62.872237 c 0,-1.002807 0.513769,-1.427999 3.245192,-2.6857 7.079067,-3.259597 21.484207,-8.26346 23.788897,-8.26346 0.94368,0 1.49233,0.326641 1.81693,1.081731 0.25575,0.594952 3.61,24.230769 7.45387,52.524042 16.43374,120.96241 16.05328,118.50961 18.38212,118.50961 2.4672,0 2.50122,-0.99785 0.83601,-24.52366 -1.68817,-23.85039 -12.19244,-160.355038 -12.74478,-165.620569 -0.24964,-2.379808 -0.45763,-5.565926 -0.46222,-7.080263 -0.014,-4.625703 0.43374,-4.73203 20.05973,-4.763758 15.04521,-0.02432 20.75239,0.295921 22.03892,1.236658 0.70224,0.513486 0.72482,1.488968 0.23505,10.155015 -0.64159,11.352634 -5.51443,76.563507 -9.93116,132.904267 -4.06106,51.80372 -4.26735,57.71202 -2.01411,57.68495 1.28569,-0.0154 1.74971,-0.82813 2.46697,-4.32072 1.87342,-9.12228 9.41545,-62.01533 19.26749,-135.125034 2.19365,-16.278543 4.25732,-30.099729 4.58594,-30.713748 0.55538,-1.03774 0.80927,-1.096621 3.60353,-0.835689 1.73056,0.161603 6.73105,1.524 11.78503,3.210866 8.9565,2.989406 13.47121,4.929423 13.47121,5.78872 0,0.26446 -0.54757,3.019229 -1.21683,6.121709 -2.03086,9.41458 -6.82294,26.947233 -23.94637,87.612026 -14.53708,51.50188 -17.91664,64.21399 -18.21351,68.50962 -0.12225,1.76882 -0.0293,1.93504 1.1591,2.07229 1.62157,0.18729 2.06757,-0.47459 4.96004,-7.36076 2.98226,-7.09993 8.15352,-21.3923 22.35276,-61.77884 17.43122,-49.57917 28.63761,-80.438021 30.5975,-84.255872 0.675,-1.314904 0.69045,-1.318514 2.46924,-0.577115 4.6554,1.940356 15.09348,9.53362 20.59559,14.982418 1.95259,1.933683 3.55017,3.725649 3.55017,3.982149 0,1.105635 -5.2065,11.3205 -30.75494,60.33957 -34.34328,65.89347 -40.71473,78.48225 -40.05532,79.14167 0.27888,0.27888 1.00592,0.43464 1.61565,0.34615 1.52576,-0.22144 5.07768,-5.48784 33.98302,-50.38631 30.47542,-47.33729 44.00317,-68.05317 46.67177,-71.47139 l 2.08517,-2.67091 1.20057,1.12616 c 2.30968,2.16655 9.33426,13.34993 13.66064,21.74825 2.40006,4.65897 4.29211,8.66718 4.20455,8.90715 -0.0876,0.23996 -7.10637,8.29742 -15.59738,17.90546 -70.62204,79.91273 -73.56367,83.37159 -73.18268,86.05049 0.24196,1.70136 1.65366,1.63359 4.40438,-0.21143 2.81714,-1.88958 18.23302,-15.34141 47.12603,-41.12199 C 288.63018,174.44972 302.45709,162.5 303.42421,162.5 c 0.92814,0 2.73286,9.48716 4.25086,22.34614 0.76289,6.46236 0.84004,8.27812 0.37028,8.71377 -0.60794,0.56379 -19.01024,11.89845 -55.16073,33.97555 -25.69446,15.69159 -36.37424,22.48247 -38.94076,24.76098 -1.69124,1.50145 -2.0573,2.15371 -2.27019,4.04514 -0.40724,3.61825 0.0264,4.49777 2.87005,5.82107 3.00583,1.39877 13.01761,4.70197 29.44666,9.71538 13.34488,4.07225 16.10577,5.13355 16.10577,6.19109 0,1.21453 -5.62178,9.11866 -9.27904,13.04618 l -3.46253,3.71839 -4.32633,-1.07459 c -2.37948,-0.59103 -9.51863,-2.76511 -15.86479,-4.83131 -6.34615,-2.06618 -15.73712,-4.98216 -20.86882,-6.47993 l -9.33035,-2.72323 -5.57349,2.63499 c -9.66789,4.57072 -17.06993,6.43383 -27.92926,7.02988 -15.02253,0.82455 -30.3243,-1.85684 -40.81393,-7.15199 -5.18677,-2.61827 -6.36318,-2.42012 -29.859148,5.0293 -13.570909,4.30267 -24.235683,7.45302 -25.15864,7.4318 -0.309385,-0.007 -1.236846,-0.60207 -2.061029,-1.32212 l 0,0 z"
       id="path3010"
       inkscape:connector-curvature="0"
       transform="scale(0.8,0.8)" />
  </g>
</svg>
