<?xml version="1.0" standalone="no"?>
<!DOCTYPE svg PUBLIC "-//W3C//DTD SVG 20010904//EN"
 "http://www.w3.org/TR/2001/REC-SVG-20010904/DTD/svg10.dtd">
<svg version="1.0" xmlns="http://www.w3.org/2000/svg"
 width="415.000000pt" height="626.000000pt" viewBox="0 0 415.000000 626.000000"
 preserveAspectRatio="xMidYMid meet">
<metadata>
Created by potrace 1.11, written by Peter Selinger 2001-2013
</metadata>
<g transform="translate(0.000000,626.000000) scale(0.100000,-0.100000)"
fill="#000000" stroke="none">
<path d="M1697 6241 c-140 -66 -177 -241 -74 -349 47 -49 92 -67 167 -67 79 1
134 31 177 98 24 36 28 52 28 117 0 67 -3 80 -30 120 -60 88 -176 123 -268 81z"/>
<path d="M2265 6232 c-30 -16 -61 -44 -80 -72 -27 -40 -30 -53 -30 -120 0 -65
4 -81 28 -117 43 -67 98 -97 177 -98 107 0 182 52 215 150 61 182 -141 350
-310 257z"/>
<path d="M1405 5730 l-480 -5 -77 -27 c-87 -31 -119 -47 -201 -102 -56 -37
-177 -149 -177 -163 0 -4 -9 -16 -20 -28 -27 -29 -68 -107 -104 -200 l-31 -80
-3 -1554 -2 -1554 21 -76 c75 -268 277 -483 519 -552 60 -17 64 -21 41 -48
-11 -13 -23 -32 -26 -42 -4 -11 -11 -19 -16 -19 -5 0 -9 -4 -9 -9 0 -5 -70
-113 -155 -241 -85 -127 -155 -235 -155 -240 0 -5 -3 -10 -7 -12 -8 -3 -425
-624 -432 -643 -2 -5 -7 -12 -10 -15 -13 -11 -51 -70 -51 -80 0 -5 -4 -10 -9
-10 -5 0 -11 -7 -15 -15 -5 -13 28 -15 258 -15 l263 0 76 113 c42 61 111 164
154 227 44 63 104 151 133 195 30 44 57 82 60 85 3 3 17 23 30 45 22 37 76
114 100 142 5 7 10 15 10 18 0 6 40 65 50 75 3 3 13 17 23 33 l17 27 895 0
895 0 17 -27 c10 -16 20 -30 23 -33 14 -13 50 -70 50 -79 0 -5 3 -11 8 -13 8
-4 23 -24 145 -205 52 -76 131 -192 176 -258 45 -66 116 -171 158 -232 l76
-113 263 0 c230 0 263 2 258 15 -4 8 -10 15 -15 15 -5 0 -9 5 -9 11 0 6 -8 21
-17 34 -22 28 0 -5 -285 425 -134 201 -246 366 -250 368 -5 2 -8 8 -8 12 0 5
-56 93 -125 196 -69 102 -125 188 -125 190 0 6 -41 64 -58 83 -17 17 -8 24 48
40 237 67 446 288 519 552 l21 76 -2 1554 -3 1554 -31 80 c-42 110 -93 203
-116 213 -5 2 -8 8 -8 13 0 16 -117 125 -177 165 -80 54 -135 80 -228 108
l-80 24 -655 3 c-360 2 -871 2 -1135 -1z m1119 -179 c59 -39 66 -62 66 -214 0
-153 -10 -191 -58 -224 -25 -17 -61 -18 -445 -21 -471 -3 -471 -3 -507 69 -17
32 -20 59 -20 176 0 148 5 166 60 212 24 20 35 20 450 21 400 0 427 -1 454
-19z m553 -621 c105 -13 165 -41 228 -104 61 -61 89 -118 104 -207 14 -83 14
-596 1 -675 -15 -83 -45 -141 -106 -201 -66 -65 -127 -92 -229 -103 -108 -12
-1899 -12 -2000 -1 -44 5 -93 17 -110 25 -16 9 -36 16 -42 16 -22 0 -129 114
-150 160 -36 75 -43 151 -43 439 0 283 8 372 41 446 47 106 163 188 289 204
96 13 1919 13 2017 1z m-1890 -2466 c57 -18 81 -32 127 -74 146 -133 152 -356
12 -494 -64 -64 -100 -83 -182 -98 -155 -28 -309 49 -376 190 -19 39 -22 64
-22 152 0 120 14 159 88 234 49 50 81 71 138 90 83 28 132 28 215 0z m1965 5
c9 -5 24 -9 32 -9 19 0 112 -64 138 -94 10 -12 32 -49 49 -83 26 -55 30 -74
30 -146 0 -129 -48 -220 -154 -290 -144 -95 -359 -60 -458 75 -54 74 -71 125
-72 213 0 69 4 89 30 145 53 110 147 180 273 203 32 6 110 -3 132 -14z"/>
</g>
</svg>
