<?xml version="1.0" encoding="UTF-8" standalone="no"?>
<svg
   xmlns:dc="http://purl.org/dc/elements/1.1/"
   xmlns:cc="http://creativecommons.org/ns#"
   xmlns:rdf="http://www.w3.org/1999/02/22-rdf-syntax-ns#"
   xmlns:svg="http://www.w3.org/2000/svg"
   xmlns="http://www.w3.org/2000/svg"
   xmlns:sodipodi="http://sodipodi.sourceforge.net/DTD/sodipodi-0.dtd"
   xmlns:inkscape="http://www.inkscape.org/namespaces/inkscape"
   version="1.0"
   width="415.000000pt"
   height="626.000000pt"
   viewBox="0 0 415.000000 626.000000"
   preserveAspectRatio="xMidYMid meet"
   id="svg3082"
   inkscape:version="0.48.5 r10040"
   sodipodi:docname="tren.svg">
  <defs
     id="defs3096" />
  <sodipodi:namedview
     pagecolor="#ffffff"
     bordercolor="#666666"
     borderopacity="1"
     objecttolerance="10"
     gridtolerance="10"
     guidetolerance="10"
     inkscape:pageopacity="0"
     inkscape:pageshadow="2"
     inkscape:window-width="1600"
     inkscape:window-height="837"
     id="namedview3094"
     showgrid="false"
     inkscape:zoom="0.83067093"
     inkscape:cx="120.93269"
     inkscape:cy="391.25"
     inkscape:window-x="-8"
     inkscape:window-y="-8"
     inkscape:window-maximized="1"
     inkscape:current-layer="svg3082" />
  <metadata
     id="metadata3084">
Created by potrace 1.11, written by Peter Selinger 2001-2013
<rdf:RDF>
  <cc:Work
     rdf:about="">
    <dc:format>image/svg+xml</dc:format>
    <dc:type
       rdf:resource="http://purl.org/dc/dcmitype/StillImage" />
    <dc:title></dc:title>
  </cc:Work>
</rdf:RDF>
</metadata>
  <g
     inkscape:groupmode="layer"
     id="layer4"
     inkscape:label="Capa"
     style="display:inline">
    <path
       style="fill:#ffffff"
       d="m 17.091566,781.6004 -15.3584358,-0.37632 2.3104314,-3.27455 c 1.2707373,-1.80099 10.9226604,-16.27607 21.4487184,-32.16684 10.526057,-15.89077 28.044871,-42.28363 38.930695,-58.6508 30.712851,-46.17771 48.651115,-73.64681 49.038575,-75.09342 0.19463,-0.72663 -4.4527,-3.0405 -10.32738,-5.14192 -19.061498,-6.81848 -34.997947,-19.49549 -47.321892,-37.64331 -5.825136,-8.57789 -9.259033,-16.0691 -13.722699,-29.93675 l -3.291547,-10.22611 0.800335,-194.22622 0.800335,-194.22622 4.939669,-11.63147 c 2.716818,-6.39731 7.397225,-15.33502 10.400903,-19.86159 C 66.224865,93.343018 86.028512,78.395303 106.34487,70.947981 l 10.37436,-3.802908 141.45192,-0.143686 141.45193,-0.143687 11.59137,3.940973 c 17.95851,6.105748 33.10682,16.117653 45.34217,29.967817 8.34219,9.44318 11.32387,14.44367 17.14905,28.76017 l 4.64458,11.41489 0.85641,193.52701 0.85642,193.527 -2.70795,8.97433 c -10.91829,36.18407 -32.17607,59.65522 -64.30132,70.99639 -4.45415,1.57245 -7.94388,3.43861 -7.75497,4.14705 0.62219,2.33333 33.27201,51.78416 86.26788,130.65975 l 25.47891,37.92115 -17.17858,0.75161 c -9.44822,0.41339 -23.73347,0.81969 -31.74499,0.90288 l -14.56642,0.15128 -6.9955,-10.53365 c -10.98653,-16.54326 -58.44752,-86.01137 -61.25952,-89.66489 -1.39226,-1.80889 -4.96918,-7.08617 -7.9487,-11.72726 l -5.4173,-8.43836 -112.55962,-0.008 -112.55962,-0.008 -7.44659,11.13355 c -4.09563,6.12391 -12.85241,18.9891 -19.4595,28.58978 -6.6071,9.60067 -21.651097,31.6762 -33.431107,49.05673 L 65.059983,782.5 48.754992,782.23837 c -8.967746,-0.1439 -23.216287,-0.43099 -31.663426,-0.63797 l 0,0 z M 153.83454,555.07478 c 7.82538,-3.79221 17.30781,-13.52448 21.14151,-21.69855 2.69319,-5.74228 3.13933,-8.31884 3.13933,-18.13008 0,-10.28213 -0.35909,-12.14524 -3.55747,-18.45756 -14.5784,-28.7719 -52.51809,-33.55904 -72.91267,-9.19993 -7.046399,8.41613 -8.286173,12.66354 -8.348169,28.60039 -0.04701,12.08548 0.269819,14.20943 2.873269,19.26154 5.00375,9.71001 13.68634,17.31103 23.95872,20.97428 8.96927,3.19852 25.70232,2.52827 33.70548,-1.35009 l 0,0 z m 247.69163,-0.4222 c 8.66285,-4.2625 16.44275,-12.02094 20.20061,-20.14489 2.36213,-5.10659 3.17483,-9.10782 3.55287,-17.492 0.45192,-10.02315 0.21359,-11.47823 -3.05652,-18.65962 -8.07826,-17.74049 -21.47637,-26.39695 -40.91355,-26.43409 -15.82953,-0.0302 -31.38958,10.3244 -38.36254,25.52888 -3.01462,6.57332 -3.46638,8.98693 -3.45356,18.45093 0.0129,9.5065 0.44947,11.77689 3.44028,17.88988 8.45261,17.27652 21.81494,25.09456 41.73856,24.42043 8.29273,-0.2806 11.61664,-0.98261 16.85385,-3.55952 l 0,0 z M 391.03191,326.85759 c 10.22302,-2.16592 16.61667,-5.83093 24.06677,-13.79569 11.74125,-12.55235 13.34083,-21.9566 12.50111,-73.49652 -0.47676,-29.26293 -0.94751,-36.6788 -2.67462,-42.13461 -4.4994,-14.2132 -15.06997,-24.79344 -29.63183,-29.65895 -6.06243,-2.02562 -14.57039,-2.19949 -125.08372,-2.55622 -65.21837,-0.21052 -124.64527,0.092 -132.05978,0.67218 -16.89157,1.32184 -25.88454,5.24576 -35.07921,15.3062 -10.291959,11.26104 -12.141008,21.20993 -12.196922,65.62606 -0.05943,47.21169 1.650006,54.75839 15.548912,68.64406 7.7915,7.7841 11.78104,9.78635 24.74276,12.4178 1.32424,0.26884 58.47683,0.54223 127.00577,0.60756 104.74848,0.0998 125.9144,-0.16015 132.86076,-1.63187 z m -75.33628,-182.68 c 1.73155,-0.837 4.25908,-3.41788 5.61671,-5.73528 2.20128,-3.75746 2.46843,-6.23291 2.46843,-22.87308 0,-17.358522 -0.18669,-18.921338 -2.67741,-22.413125 C 316.09433,86.13389 315.57051,86.075 258.1175,86.075 c -58.24075,0 -56.48227,-0.234651 -60.98103,8.137299 -2.6207,4.876981 -3.72992,31.375901 -1.63849,39.142911 2.3271,8.64213 5.63353,11.34078 15.22115,12.42315 13.62249,1.53789 101.24762,0.2017 104.9765,-1.60077 l 0,0 z"
       id="path3099"
       inkscape:connector-curvature="0"
       transform="scale(0.8,0.8)" />
    <path
       style="fill:#ffffff"
       d="m 217.13992,53.052886 c -13.50921,-2.640845 -22.65601,-16.340171 -20.12337,-30.139115 2.8464,-15.5084209 19.27636,-25.3877809 34.09051,-20.4986715 5.20235,1.7169309 13.19326,8.5274895 15.70549,13.3856085 2.36063,4.564956 2.24264,18.264017 -0.20168,23.415032 -3.08635,6.503988 -10.18197,12.107615 -17.25104,13.62366 -3.4203,0.733522 -6.59836,1.271378 -7.06235,1.195236 -0.464,-0.07614 -2.7849,-0.51793 -5.15756,-0.98175 z"
       id="path3101"
       inkscape:connector-curvature="0"
       transform="scale(0.8,0.8)" />
    <path
       style="fill:#ffffff"
       d="m 287.89637,52.45439 c -6.39953,-1.720529 -12.90374,-7.225341 -15.8345,-13.401464 -2.37807,-5.011418 -2.44188,-18.770737 -0.10798,-23.284005 2.28619,-4.421 9.62197,-10.7955224 15.0181,-13.0501678 6.45263,-2.69608224 16.75481,-1.4066615 23.16657,2.8995281 19.67257,13.2122547 14.28354,42.3246387 -8.74916,47.2642677 -7.05604,1.513249 -6.16701,1.541459 -13.49303,-0.428159 z"
       id="path3103"
       inkscape:connector-curvature="0"
       transform="scale(0.8,0.8)" />
  </g>
</svg>
